<svg width="749" height="93" viewBox="0 0 749 93" fill="none" xmlns="http://www.w3.org/2000/svg">
<path d="M1.728 91.976H0.704V27.464H1.728V91.976ZM3.776 93H2.752V27.464H3.776V93ZM5.824 93H4.8V27.464H5.824V93ZM7.872 93H6.848V27.464H7.872V93ZM10.944 93H9.92V27.464H10.944V93ZM12.992 93H11.968V27.464H12.992V93ZM15.04 93H14.016V27.464H15.04V93ZM17.088 93H16.064V27.464H17.088V93ZM20.16 93H19.136V27.464H20.16V93ZM22.208 93H21.184V27.464H22.208V93ZM24.256 93H23.232V27.464H24.256V93ZM26.304 93H25.28V27.464H26.304V93ZM29.376 93H28.352V27.464H29.376V93ZM41.152 91.464H29.888V90.44H41.152V91.464ZM41.152 89.416H29.888V88.392H41.152V89.416ZM41.152 87.368H29.888V86.344H41.152V87.368ZM41.152 84.296H29.888V83.272H41.152V84.296ZM41.152 82.248H29.888V81.224H41.152V82.248ZM41.152 80.2H29.888V79.176H41.152V80.2ZM41.152 78.152H29.888V77.128H41.152V78.152ZM41.152 75.08H29.888V74.056H41.152V75.08ZM41.152 73.032H29.888V72.008H41.152V73.032ZM41.152 56.648H29.888V55.624H41.152V56.648ZM41.152 54.6H29.888V53.576H41.152V54.6ZM41.152 52.552H29.888V51.528H41.152V52.552ZM41.152 50.504H29.888V49.48H41.152V50.504ZM41.152 47.432H29.888V46.408H41.152V47.432ZM41.152 45.384H29.888V44.36H41.152V45.384ZM41.152 43.336H29.888V42.312H41.152V43.336ZM41.152 41.288H29.888V40.264H41.152V41.288ZM41.152 38.216H29.888V37.192H41.152V38.216ZM43.712 93H42.688V70.472H43.712V93ZM43.712 60.232H42.688V34.632H43.712V60.232ZM46.784 93H45.76V68.424H46.784V93ZM46.784 62.28H45.76V32.584H46.784V62.28ZM48.832 93H47.808V65.352H48.832V93ZM48.832 64.328H47.808V30.536H48.832V64.328ZM49.344 29H43.2V27.976H49.344V29ZM51.904 93H50.88V55.112H51.904V93ZM53.952 93H52.928V55.112H53.952V93ZM57.024 93H56V55.112H57.024V93ZM62.656 91.464H58.56V90.44H62.656V91.464ZM66.752 89.416H58.56V88.392H66.752V89.416ZM66.752 87.368H58.56V86.344H66.752V87.368ZM66.752 84.296H58.56V83.272H66.752V84.296ZM66.752 82.248H58.56V81.224H66.752V82.248ZM66.752 80.2H58.56V79.176H66.752V80.2ZM66.752 78.152H58.56V77.128H66.752V78.152ZM66.752 75.08H58.56V74.056H66.752V75.08ZM66.752 73.032H58.56V72.008H66.752V73.032ZM66.752 70.984H58.56V69.96H66.752V70.984ZM66.752 68.936H58.56V67.912H66.752V68.936ZM66.752 65.864H58.56V64.84H66.752V65.864ZM66.752 63.816H58.56V62.792H66.752V63.816ZM66.752 61.768H58.56V60.744H66.752V61.768ZM66.752 59.72H58.56V58.696H66.752V59.72ZM66.752 56.648H58.56V55.624H66.752V56.648ZM51.904 55.112H50.88V27.464H51.904V55.112ZM53.952 55.112H52.928V27.464H53.952V55.112ZM57.024 55.112H56V27.464H57.024V55.112ZM59.072 55.112H58.048V27.464H59.072V55.112ZM61.12 55.112H60.096V27.464H61.12V55.112ZM63.168 55.112H62.144V27.464H63.168V55.112ZM66.24 55.112H65.216V27.464H66.24V55.112ZM69.312 88.904H68.288V28.488H69.312V88.904ZM71.36 86.856H70.336V47.944H71.36V86.856ZM71.36 45.896H70.336V28.488H71.36V45.896ZM74.432 85.832H73.408V48.968H74.432V85.832ZM74.432 43.848H73.408V28.488H74.432V43.848ZM74.944 84.296H73.92V83.272H74.944V84.296ZM76.992 82.248H73.92V81.224H76.992V82.248ZM78.016 80.2H73.92V79.176H78.016V80.2ZM79.04 78.152H73.92V77.128H79.04V78.152ZM80.064 75.08H73.92V74.056H80.064V75.08ZM81.088 73.032H73.92V72.008H81.088V73.032ZM81.088 70.984H73.92V69.96H81.088V70.984ZM81.088 68.936H73.92V67.912H81.088V68.936ZM81.088 65.864H73.92V64.84H81.088V65.864ZM81.088 63.816H73.92V62.792H81.088V63.816ZM81.088 61.768H73.92V60.744H81.088V61.768ZM80.064 59.72H73.92V58.696H80.064V59.72ZM79.04 56.648H73.92V55.624H79.04V56.648ZM78.016 54.6H73.92V53.576H78.016V54.6ZM75.968 52.552H73.92V51.528H75.968V52.552ZM81.216 50.504H73.92V49.48H81.216V50.504ZM75.968 41.288H73.92V40.264H75.968V41.288ZM78.016 38.216H73.92V37.192H78.016V38.216ZM79.04 36.168H73.92V35.144H79.04V36.168ZM79.04 34.12H73.92V33.096H79.04V34.12ZM80.064 32.072H73.92V31.048H80.064V32.072ZM80.064 29H73.92V27.976H80.064V29ZM69.312 28.488H68.288V27.464H69.312V28.488ZM71.36 28.488H70.336V27.464H71.36V28.488ZM74.432 28.488H73.408V27.464H74.432V28.488ZM76.48 28.488H75.456V27.464H76.48V28.488ZM78.528 28.488H77.504V27.464H78.528V28.488ZM1.728 26.44H0.704V4.936H1.728V26.44ZM3.776 26.44H2.752V4.936H3.776V26.44ZM5.824 26.44H4.8V4.936H5.824V26.44ZM7.872 26.44H6.848V4.936H7.872V26.44ZM10.944 26.44H9.92V4.936H10.944V26.44ZM12.992 26.44H11.968V4.936H12.992V26.44ZM15.04 26.44H14.016V4.936H15.04V26.44ZM17.088 26.44H16.064V4.936H17.088V26.44ZM20.16 26.44H19.136V4.936H20.16V26.44ZM22.208 26.44H21.184V4.936H22.208V26.44ZM24.256 26.44H23.232V4.936H24.256V26.44ZM26.304 26.44H25.28V4.936H26.304V26.44ZM29.376 26.44H28.352V4.936H29.376V26.44ZM31.424 25.416H30.4V4.936H31.424V25.416ZM33.472 25.416H32.448V4.936H33.472V25.416ZM35.52 25.416H34.496V4.936H35.52V25.416ZM38.592 25.416H37.568V4.936H38.592V25.416ZM40.64 25.416H39.616V4.936H40.64V25.416ZM42.688 26.44H41.664V4.936H42.688V26.44ZM44.736 26.44H43.712V4.936H44.736V26.44ZM47.808 26.44H46.784V4.936H47.808V26.44ZM49.856 26.44H48.832V4.936H49.856V26.44ZM51.904 26.44H50.88V4.936H51.904V26.44ZM53.952 26.44H52.928V4.936H53.952V26.44ZM57.024 26.44H56V4.936H57.024V26.44ZM59.072 26.44H58.048V5.96H59.072V26.44ZM61.12 26.44H60.096V5.96H61.12V26.44ZM63.168 26.44H62.144V6.98399H63.168V26.44ZM66.752 24.904H64.704V23.88H66.752V24.904ZM66.752 22.856H64.704V21.832H66.752V22.856ZM66.752 19.784H64.704V18.76H66.752V19.784ZM66.752 17.736H64.704V16.712H66.752V17.736ZM66.752 15.688H64.704V14.664H66.752V15.688ZM66.752 13.64H64.704V12.616H66.752V13.64ZM66.752 10.568H64.704V9.544H66.752V10.568ZM66.752 8.52H64.704V7.49599H66.752V8.52ZM69.312 26.44H68.288V12.104H69.312V26.44ZM71.36 26.44H70.336V12.104H71.36V26.44ZM73.408 26.44H72.384V13.128H73.408V26.44ZM76.48 26.44H75.456V15.176H76.48V26.44ZM68.8 9.544H66.752V8.52H68.8V9.544ZM78.528 26.44H77.504V20.296H78.528V26.44ZM3.776 3.91199H2.752V1.864H3.776V3.91199ZM7.872 3.91199H6.848V0.839996H7.872V3.91199ZM12.992 3.91199H11.968V1.864H12.992V3.91199ZM17.088 3.91199H16.064V0.839996H17.088V3.91199ZM22.208 3.91199H21.184V1.864H22.208V3.91199ZM26.304 3.91199H25.28V0.839996H26.304V3.91199ZM90.608 82.76H89.584V66.376H90.608V82.76ZM92.656 85.832H91.632V63.304H92.656V85.832ZM92.656 44.872H91.632V43.848H92.656V44.872ZM94.704 88.904H93.68V60.232H94.704V88.904ZM94.704 46.92H93.68V40.776H94.704V46.92ZM97.776 89.928H96.752V59.208H97.776V89.928ZM97.776 47.944H96.752V40.776H97.776V47.944ZM99.824 91.976H98.8V57.16H99.824V91.976ZM99.824 47.944H98.8V40.776H99.824V47.944ZM101.872 91.976H100.848V57.16H101.872V91.976ZM101.872 47.944H100.848V40.776H101.872V47.944ZM103.92 93H102.896V55.112H103.92V93ZM103.92 47.944H102.896V40.776H103.92V47.944ZM106.992 93H105.968V55.112H106.992V93ZM106.992 47.944H105.968V40.776H106.992V47.944ZM112.624 92.488H107.504V91.464H112.624V92.488ZM112.624 90.44H107.504V89.416H112.624V90.44ZM112.624 88.392H107.504V87.368H112.624V88.392ZM112.624 86.344H107.504V85.32H112.624V86.344ZM112.624 83.272H107.504V82.248H112.624V83.272ZM112.624 81.224H107.504V80.2H112.624V81.224ZM112.624 79.176H107.504V78.152H112.624V79.176ZM112.624 77.128H107.504V76.104H112.624V77.128ZM112.624 74.056H107.504V73.032H112.624V74.056ZM112.624 72.008H107.504V70.984H112.624V72.008ZM112.624 69.96H107.504V68.936H112.624V69.96ZM112.624 67.912H107.504V66.888H112.624V67.912ZM112.624 64.84H107.504V63.816H112.624V64.84ZM112.624 62.792H107.504V61.768H112.624V62.792ZM112.624 60.744H107.504V59.72H112.624V60.744ZM112.624 58.696H107.504V57.672H112.624V58.696ZM112.624 55.624H107.504V54.6H112.624V55.624ZM112.624 53.576H110.576V52.552H112.624V53.576ZM112.624 46.408H107.504V45.384H112.624V46.408ZM112.624 44.36H107.504V43.336H112.624V44.36ZM112.624 42.312H107.504V41.288H112.624V42.312ZM115.184 93H114.16V52.04H115.184V93ZM115.184 47.944H114.16V43.848H115.184V47.944ZM118.256 93H117.232V72.52H118.256V93ZM118.256 71.496H117.232V52.04H118.256V71.496ZM118.256 46.92H117.232V43.848H118.256V46.92ZM120.304 93H119.28V74.568H120.304V93ZM120.304 69.448H119.28V52.04H120.304V69.448ZM120.304 45.896H119.28V43.848H120.304V45.896ZM122.352 93H121.328V75.592H122.352V93ZM122.352 67.4H121.328V51.016H122.352V67.4ZM122.352 44.872H121.328V43.848H122.352V44.872ZM121.84 42.312H112.624V41.288H121.84V42.312ZM125.424 90.952H124.4V74.568H125.424V90.952ZM125.424 66.376H124.4V64.328H125.424V66.376ZM127.472 89.928H126.448V73.544H127.472V89.928ZM127.472 66.376H126.448V64.328H127.472V66.376ZM129.52 87.88H128.496V67.4H129.52V87.88ZM129.52 65.352H128.496V64.328H129.52V65.352ZM132.592 90.952H131.568V64.328H132.592V90.952ZM134.64 93H133.616V64.328H134.64V93ZM136.688 93H135.664V64.328H136.688V93ZM138.736 93H137.712V64.328H138.736V93ZM144.368 92.488H140.272V91.464H144.368V92.488ZM144.368 90.44H140.272V89.416H144.368V90.44ZM144.368 88.392H140.272V87.368H144.368V88.392ZM144.368 86.344H140.272V85.32H144.368V86.344ZM144.368 83.272H140.272V82.248H144.368V83.272ZM144.368 81.224H140.272V80.2H144.368V81.224ZM144.368 79.176H140.272V78.152H144.368V79.176ZM144.368 77.128H140.272V76.104H144.368V77.128ZM144.368 74.056H140.272V73.032H144.368V74.056ZM144.368 72.008H140.272V70.984H144.368V72.008ZM144.368 69.96H140.272V68.936H144.368V69.96ZM144.368 67.912H140.272V66.888H144.368V67.912ZM144.368 64.84H140.272V63.816H144.368V64.84ZM125.424 64.328H124.4V52.04H125.424V64.328ZM127.472 64.328H126.448V52.04H127.472V64.328ZM129.52 64.328H128.496V52.04H129.52V64.328ZM132.592 64.328H131.568V52.04H132.592V64.328ZM134.64 64.328H133.616V52.04H134.64V64.328ZM136.688 64.328H135.664V52.04H136.688V64.328ZM138.736 64.328H137.712V52.04H138.736V64.328ZM141.808 64.328H140.784V52.04H141.808V64.328ZM143.856 64.328H142.832V52.04H143.856V64.328ZM144.368 49.48H129.008V48.456H144.368V49.48ZM144.368 47.432H127.984V46.408H144.368V47.432ZM144.368 45.384H125.936V44.36H144.368V45.384ZM144.368 43.336H122.864V42.312H144.368V43.336ZM147.952 93H146.928V47.944H147.952V93ZM150 93H148.976V47.944H150V93ZM152.048 93H151.024V47.944H152.048V93ZM154.096 93H153.072V47.944H154.096V93ZM157.168 93H156.144V47.944H157.168V93ZM159.728 55.624H158.704V54.6H159.728V55.624ZM159.728 53.576H158.704V52.552H159.728V53.576ZM159.728 50.504H158.704V49.48H159.728V50.504ZM159.728 48.456H158.704V47.432H159.728V48.456ZM147.952 46.92H146.928V43.848H147.952V46.92ZM150 46.92H148.976V43.848H150V46.92ZM152.048 46.92H151.024V43.848H152.048V46.92ZM158.704 45.384H153.584V44.36H158.704V45.384ZM147.952 42.824H146.928V41.8H147.952V42.824ZM150 42.824H148.976V41.8H150V42.824ZM152.048 42.824H151.024V41.8H152.048V42.824ZM154.096 42.824H153.072V41.8H154.096V42.824ZM157.168 42.824H156.144V41.8H157.168V42.824ZM94.704 40.776H93.68V38.728H94.704V40.776ZM97.776 40.776H96.752V35.656H97.776V40.776ZM99.824 40.776H98.8V33.608H99.824V40.776ZM101.872 40.776H100.848V31.56H101.872V40.776ZM113.648 39.24H103.408V38.216H113.648V39.24ZM113.648 36.168H103.408V35.144H113.648V36.168ZM113.648 34.12H103.408V33.096H113.648V34.12ZM113.648 32.072H103.408V31.048H113.648V32.072ZM113.648 30.024H106.48V29H113.648V30.024ZM117.232 40.776H116.208V33.608H117.232V40.776ZM119.28 40.776H118.256V33.608H119.28V40.776ZM121.328 40.776H120.304V33.608H121.328V40.776ZM124.4 40.776H123.376V33.608H124.4V40.776ZM126.448 40.776H125.424V33.608H126.448V40.776ZM128.496 40.776H127.472V33.608H128.496V40.776ZM130.544 40.776H129.52V33.608H130.544V40.776ZM133.616 40.776H132.592V33.608H133.616V40.776ZM135.664 40.776H134.64V33.608H135.664V40.776ZM137.2 31.048H114.672V30.024H137.2V31.048ZM137.2 29H114.672V27.976H137.2V29ZM139.76 40.776H138.736V31.56H139.76V40.776ZM142.832 40.776H141.808V31.56H142.832V40.776ZM144.88 40.776H143.856V31.56H144.88V40.776ZM146.928 40.776H145.904V31.56H146.928V40.776ZM148.976 40.776H147.952V31.56H148.976V40.776ZM152.048 40.776H151.024V32.584H152.048V40.776ZM154.096 40.776H153.072V34.632H154.096V40.776ZM156.144 40.776H155.12V37.704H156.144V40.776ZM139.76 30.536H138.736V29.512H139.76V30.536ZM142.832 30.536H141.808V29.512H142.832V30.536ZM144.88 30.536H143.856V29.512H144.88V30.536ZM146.928 30.536H145.904V29.512H146.928V30.536ZM116.208 26.44H115.184V24.392H116.208V26.44ZM134.64 26.44H133.616V24.392H134.64V26.44ZM173.305 91.976H172.281V40.776H173.305V91.976ZM176.377 93H175.353V40.776H176.377V93ZM178.425 93H177.401V40.776H178.425V93ZM180.473 93H179.449V40.776H180.473V93ZM182.521 93H181.497V40.776H182.521V93ZM185.593 93H184.569V40.776H185.593V93ZM191.225 91.464H185.081V90.44H191.225V91.464ZM191.225 89.416H185.081V88.392H191.225V89.416ZM191.225 87.368H185.081V86.344H191.225V87.368ZM191.225 84.296H185.081V83.272H191.225V84.296ZM191.225 82.248H185.081V81.224H191.225V82.248ZM191.225 80.2H185.081V79.176H191.225V80.2ZM191.225 78.152H185.081V77.128H191.225V78.152ZM191.225 75.08H185.081V74.056H191.225V75.08ZM191.225 73.032H185.081V72.008H191.225V73.032ZM191.225 70.984H185.081V69.96H191.225V70.984ZM191.225 68.936H185.081V67.912H191.225V68.936ZM191.225 65.864H185.081V64.84H191.225V65.864ZM191.225 63.816H185.081V62.792H191.225V63.816ZM191.225 61.768H185.081V60.744H191.225V61.768ZM191.225 59.72H185.081V58.696H191.225V59.72ZM191.225 56.648H185.081V55.624H191.225V56.648ZM191.225 54.6H185.081V53.576H191.225V54.6ZM191.225 52.552H185.081V51.528H191.225V52.552ZM191.225 50.504H185.081V49.48H191.225V50.504ZM191.225 47.432H185.081V46.408H191.225V47.432ZM191.225 45.384H185.081V44.36H191.225V45.384ZM191.225 43.336H185.081V42.312H191.225V43.336ZM193.785 93H192.761V64.328H193.785V93ZM196.857 93H195.833V64.328H196.857V93ZM198.905 93H197.881V64.328H198.905V93ZM200.953 91.976H199.929V64.328H200.953V91.976ZM202.489 62.792H191.225V61.768H202.489V62.792ZM202.489 60.744H191.225V59.72H202.489V60.744ZM202.489 57.672H191.225V56.648H202.489V57.672ZM202.489 55.624H191.225V54.6H202.489V55.624ZM202.489 53.576H191.225V52.552H202.489V53.576ZM203.513 51.528H191.225V50.504H203.513V51.528ZM205.561 48.456H191.225V47.432H205.561V48.456ZM205.561 46.408H191.225V45.384H205.561V46.408ZM205.561 44.36H191.225V43.336H205.561V44.36ZM205.561 42.312H191.225V41.288H205.561V42.312ZM209.145 47.944H208.121V42.824H209.145V47.944ZM217.337 90.952H216.313V57.16H217.337V90.952ZM219.385 93H218.361V57.16H219.385V93ZM221.433 93H220.409V57.16H221.433V93ZM223.481 93H222.457V57.16H223.481V93ZM226.553 93H225.529V57.16H226.553V93ZM235.257 91.464H227.065V90.44H235.257V91.464ZM235.257 89.416H227.065V88.392H235.257V89.416ZM235.257 87.368H227.065V86.344H235.257V87.368ZM235.257 84.296H227.065V83.272H235.257V84.296ZM235.257 82.248H227.065V81.224H235.257V82.248ZM235.257 80.2H227.065V79.176H235.257V80.2ZM235.257 78.152H227.065V77.128H235.257V78.152ZM235.257 75.08H227.065V74.056H235.257V75.08ZM235.257 73.032H227.065V72.008H235.257V73.032ZM235.257 70.984H227.065V69.96H235.257V70.984ZM235.257 68.936H227.065V67.912H235.257V68.936ZM235.257 65.864H227.065V64.84H235.257V65.864ZM235.257 63.816H227.065V62.792H235.257V63.816ZM235.257 61.768H227.065V60.744H235.257V61.768ZM235.257 59.72H227.065V58.696H235.257V59.72ZM237.817 93H236.793V64.328H237.817V93ZM240.889 93H239.865V64.328H240.889V93ZM242.937 93H241.913V64.328H242.937V93ZM244.985 91.976H243.961V64.328H244.985V91.976ZM246.521 61.768H235.257V60.744H246.521V61.768ZM246.521 59.72H235.257V58.696H246.521V59.72ZM246.521 57.672H235.257V56.648H246.521V57.672ZM212.217 49.992H211.193V44.872H212.217V49.992ZM214.265 52.04H213.241V44.872H214.265V52.04ZM217.337 56.136H216.313V44.872H217.337V56.136ZM219.385 56.136H218.361V44.872H219.385V56.136ZM221.433 56.136H220.409V44.872H221.433V56.136ZM223.481 56.136H222.457V44.872H223.481V56.136ZM226.553 56.136H225.529V44.872H226.553V56.136ZM228.601 56.136H227.577V44.872H228.601V56.136ZM230.649 56.136H229.625V44.872H230.649V56.136ZM232.697 56.136H231.673V44.872H232.697V56.136ZM235.769 56.136H234.745V44.872H235.769V56.136ZM237.817 56.136H236.793V44.872H237.817V56.136ZM239.865 56.136H238.841V44.872H239.865V56.136ZM241.913 56.136H240.889V44.872H241.913V56.136ZM244.985 56.136H243.961V44.872H244.985V56.136ZM246.521 54.6H245.497V53.576H246.521V54.6ZM212.217 43.848H211.193V42.824H212.217V43.848ZM214.265 43.848H213.241V42.824H214.265V43.848ZM217.337 43.848H216.313V42.824H217.337V43.848ZM219.385 43.848H218.361V42.824H219.385V43.848ZM221.433 43.848H220.409V42.824H221.433V43.848ZM223.481 43.848H222.457V42.824H223.481V43.848ZM226.553 43.848H225.529V42.824H226.553V43.848ZM228.601 43.848H227.577V42.824H228.601V43.848ZM230.649 43.848H229.625V42.824H230.649V43.848ZM232.697 43.848H231.673V42.824H232.697V43.848ZM235.769 43.848H234.745V42.824H235.769V43.848ZM237.817 43.848H236.793V42.824H237.817V43.848ZM239.865 43.848H238.841V42.824H239.865V43.848ZM241.913 43.848H240.889V42.824H241.913V43.848ZM244.985 43.848H243.961V42.824H244.985V43.848ZM173.305 40.776H172.281V33.608H173.305V40.776ZM176.377 40.776H175.353V33.608H176.377V40.776ZM178.425 40.776H177.401V33.608H178.425V40.776ZM180.473 40.776H179.449V33.608H180.473V40.776ZM182.521 40.776H181.497V33.608H182.521V40.776ZM185.593 40.776H184.569V33.608H185.593V40.776ZM187.641 40.776H186.617V33.608H187.641V40.776ZM189.689 40.776H188.665V33.608H189.689V40.776ZM191.737 40.776H190.713V33.608H191.737V40.776ZM194.809 40.776H193.785V33.608H194.809V40.776ZM196.857 40.776H195.833V33.608H196.857V40.776ZM198.905 40.776H197.881V33.608H198.905V40.776ZM210.681 39.24H201.465V38.216H210.681V39.24ZM210.681 37.192H201.465V36.168H210.681V37.192ZM210.681 34.12H201.465V33.096H210.681V34.12ZM214.265 40.776H213.241V34.632H214.265V40.776ZM216.313 40.776H215.289V34.632H216.313V40.776ZM218.361 40.776H217.337V34.632H218.361V40.776ZM220.409 40.776H219.385V34.632H220.409V40.776ZM223.481 40.776H222.457V34.632H223.481V40.776ZM225.529 40.776H224.505V34.632H225.529V40.776ZM227.577 40.776H226.553V34.632H227.577V40.776ZM229.625 40.776H228.601V34.632H229.625V40.776ZM234.745 40.776H233.721V34.632H234.745V40.776ZM236.793 40.776H235.769V34.632H236.793V40.776ZM238.841 40.776H237.817V34.632H238.841V40.776ZM241.913 40.776H240.889V35.656H241.913V40.776ZM234.745 33.608H233.721V31.56H234.745V33.608ZM173.305 32.584H172.281V28.488H173.305V32.584ZM176.377 32.584H175.353V28.488H176.377V32.584ZM178.425 32.584H177.401V28.488H178.425V32.584ZM180.473 32.584H179.449V28.488H180.473V32.584ZM182.521 32.584H181.497V28.488H182.521V32.584ZM185.593 32.584H184.569V28.488H185.593V32.584ZM187.641 32.584H186.617V28.488H187.641V32.584ZM189.689 32.584H188.665V28.488H189.689V32.584ZM191.737 32.584H190.713V28.488H191.737V32.584ZM194.809 32.584H193.785V28.488H194.809V32.584ZM196.857 32.584H195.833V28.488H196.857V32.584ZM198.905 32.584H197.881V28.488H198.905V32.584ZM204.025 32.584H203.001V31.56H204.025V32.584ZM206.073 32.584H205.049V30.536H206.073V32.584ZM208.121 32.584H207.097V29.512H208.121V32.584ZM210.169 32.584H209.145V28.488H210.169V32.584ZM213.241 32.584H212.217V28.488H213.241V32.584ZM215.289 32.584H214.265V28.488H215.289V32.584ZM217.337 32.584H216.313V28.488H217.337V32.584ZM219.385 32.584H218.361V28.488H219.385V32.584ZM222.457 32.584H221.433V28.488H222.457V32.584ZM224.505 32.584H223.481V28.488H224.505V32.584ZM226.553 32.584H225.529V28.488H226.553V32.584ZM233.209 31.048H228.089V30.024H233.209V31.048ZM233.209 29H228.089V27.976H233.209V29ZM235.769 32.584H234.745V30.536H235.769V32.584ZM210.169 27.464H209.145V24.392H210.169V27.464ZM215.289 27.464H214.265V26.44H215.289V27.464ZM217.337 27.464H216.313V26.44H217.337V27.464ZM219.385 27.464H218.361V26.44H219.385V27.464ZM222.457 27.464H221.433V26.44H222.457V27.464ZM224.505 27.464H223.481V26.44H224.505V27.464ZM226.553 27.464H225.529V26.44H226.553V27.464ZM257.507 74.568H256.483V46.92H257.507V74.568ZM260.579 79.688H259.555V41.8H260.579V79.688ZM262.627 82.76H261.603V37.704H262.627V82.76ZM264.675 85.832H263.651V36.68H264.675V85.832ZM266.723 87.88H265.699V36.68H266.723V87.88ZM269.795 88.904H268.771V36.68H269.795V88.904ZM271.843 90.952H270.819V36.68H271.843V90.952ZM273.891 90.952H272.867V36.68H273.891V90.952ZM275.939 91.976H274.915V36.68H275.939V91.976ZM279.011 93H277.987V36.68H279.011V93ZM281.059 93H280.035V36.68H281.059V93ZM283.107 93H282.083V36.68H283.107V93ZM285.155 93H284.131V36.68H285.155V93ZM288.227 93H287.203V73.544H288.227V93ZM288.227 67.4H287.203V52.04H288.227V67.4ZM288.227 45.896H287.203V36.68H288.227V45.896ZM290.275 93H289.251V75.592H290.275V93ZM290.275 67.4H289.251V52.04H290.275V67.4ZM290.275 44.872H289.251V36.68H290.275V44.872ZM292.323 93H291.299V75.592H292.323V93ZM292.323 67.4H291.299V52.04H292.323V67.4ZM292.323 43.848H291.299V36.68H292.323V43.848ZM294.371 93H293.347V74.568H294.371V93ZM294.371 67.4H293.347V52.04H294.371V67.4ZM294.371 44.872H293.347V36.68H294.371V44.872ZM297.443 93H296.419V73.544H297.443V93ZM297.443 67.4H296.419V52.04H297.443V67.4ZM297.443 51.016H296.419V36.68H297.443V51.016ZM299.491 93H298.467V72.52H299.491V93ZM299.491 67.4H298.467V36.68H299.491V67.4ZM307.171 92.488H298.979V91.464H307.171V92.488ZM311.267 90.44H298.979V89.416H311.267V90.44ZM311.267 88.392H298.979V87.368H311.267V88.392ZM311.267 86.344H298.979V85.32H311.267V86.344ZM311.267 83.272H298.979V82.248H311.267V83.272ZM311.267 81.224H298.979V80.2H311.267V81.224ZM311.267 79.176H298.979V78.152H311.267V79.176ZM311.267 77.128H298.979V76.104H311.267V77.128ZM311.267 74.056H298.979V73.032H311.267V74.056ZM311.267 67.912H298.979V66.888H311.267V67.912ZM311.267 64.84H298.979V63.816H311.267V64.84ZM311.267 62.792H298.979V61.768H311.267V62.792ZM311.267 60.744H298.979V59.72H311.267V60.744ZM311.267 58.696H298.979V57.672H311.267V58.696ZM311.267 55.624H298.979V54.6H311.267V55.624ZM311.267 53.576H298.979V52.552H311.267V53.576ZM311.267 51.528H298.979V50.504H311.267V51.528ZM311.267 49.48H298.979V48.456H311.267V49.48ZM311.267 46.408H298.979V45.384H311.267V46.408ZM311.267 44.36H298.979V43.336H311.267V44.36ZM311.267 42.312H298.979V41.288H311.267V42.312ZM311.267 40.264H298.979V39.24H311.267V40.264ZM311.267 37.192H298.979V36.168H311.267V37.192ZM314.851 88.904H313.827V72.52H314.851V88.904ZM314.851 67.4H313.827V61.256H314.851V67.4ZM316.899 87.88H315.875V72.52H316.899V87.88ZM316.899 67.4H315.875V61.256H316.899V67.4ZM316.387 59.72H312.291V58.696H316.387V59.72ZM316.387 57.672H312.291V56.648H316.387V57.672ZM316.387 55.624H312.291V54.6H316.387V55.624ZM316.387 52.552H312.291V51.528H316.387V52.552ZM316.387 50.504H312.291V49.48H316.387V50.504ZM316.387 48.456H312.291V47.432H316.387V48.456ZM316.387 46.408H312.291V45.384H316.387V46.408ZM316.387 43.336H312.291V42.312H316.387V43.336ZM316.387 41.288H312.291V40.264H316.387V41.288ZM316.387 39.24H312.291V38.216H316.387V39.24ZM316.387 37.192H312.291V36.168H316.387V37.192ZM320.995 84.808H319.971V72.52H320.995V84.808ZM320.995 67.4H319.971V48.968H320.995V67.4ZM323.043 81.736H322.019V72.52H323.043V81.736ZM323.043 67.4H322.019V48.968H323.043V67.4ZM326.115 77.64H325.091V73.544H326.115V77.64ZM326.115 66.376H325.091V48.968H326.115V66.376ZM327.651 64.84H325.603V63.816H327.651V64.84ZM327.651 62.792H325.603V61.768H327.651V62.792ZM327.651 60.744H325.603V59.72H327.651V60.744ZM327.651 58.696H325.603V57.672H327.651V58.696ZM327.651 55.624H325.603V54.6H327.651V55.624ZM326.627 53.576H325.603V52.552H326.627V53.576ZM326.627 51.528H325.603V50.504H326.627V51.528ZM320.995 48.968H319.971V40.776H320.995V48.968ZM323.043 48.968H322.019V40.776H323.043V48.968ZM325.603 47.432H324.579V46.408H325.603V47.432ZM320.995 40.776H319.971V37.704H320.995V40.776ZM264.675 35.656H263.651V32.712H264.675V35.656ZM269.795 35.656H268.771V31.56H269.795V35.656ZM271.843 35.656H270.819V30.536H271.843V35.656ZM290.787 34.12H273.379V33.096H290.787V34.12ZM290.787 32.072H273.379V31.048H290.787V32.072ZM293.347 35.656H292.323V31.56H293.347V35.656ZM295.395 35.656H294.371V31.56H295.395V35.656ZM297.443 35.656H296.419V31.56H297.443V35.656ZM300.515 35.656H299.491V31.56H300.515V35.656ZM302.563 35.656H301.539V31.56H302.563V35.656ZM304.611 35.656H303.587V29.512H304.611V35.656ZM307.683 35.656H306.659V29.512H307.683V35.656ZM309.731 35.656H308.707V29.512H309.731V35.656ZM311.779 35.656H310.755V30.536H311.779V35.656ZM313.827 35.656H312.803V31.56H313.827V35.656ZM316.899 35.656H315.875V33.608H316.899V35.656ZM279.011 28.488H277.987V27.464H279.011V28.488ZM281.059 28.488H280.035V26.44H281.059V28.488ZM283.107 28.488H282.083V26.44H283.107V28.488ZM285.155 28.488H284.131V26.44H285.155V28.488ZM288.227 28.488H287.203V26.44H288.227V28.488ZM290.275 28.488H289.251V26.44H290.275V28.488ZM292.323 28.488H291.299V26.44H292.323V28.488ZM294.371 28.488H293.347V26.44H294.371V28.488ZM297.443 28.488H296.419V26.44H297.443V28.488ZM299.491 28.488H298.467V26.44H299.491V28.488ZM302.051 26.952H298.979V25.928H302.051V26.952ZM305.635 28.488H304.611V27.464H305.635V28.488ZM339.305 91.976H338.281V25.416H339.305V91.976ZM342.377 93H341.353V25.416H342.377V93ZM346.985 91.464H342.889V90.44H346.985V91.464ZM346.985 89.416H342.889V88.392H346.985V89.416ZM346.985 87.368H342.889V86.344H346.985V87.368ZM346.985 84.296H342.889V83.272H346.985V84.296ZM346.985 82.248H342.889V81.224H346.985V82.248ZM346.985 80.2H342.889V79.176H346.985V80.2ZM346.985 78.152H342.889V77.128H346.985V78.152ZM346.985 75.08H342.889V74.056H346.985V75.08ZM346.985 73.032H342.889V72.008H346.985V73.032ZM346.985 70.984H342.889V69.96H346.985V70.984ZM346.985 68.936H342.889V67.912H346.985V68.936ZM346.985 65.864H342.889V64.84H346.985V65.864ZM346.985 63.816H342.889V62.792H346.985V63.816ZM346.985 61.768H342.889V60.744H346.985V61.768ZM346.985 59.72H342.889V58.696H346.985V59.72ZM346.985 56.648H342.889V55.624H346.985V56.648ZM346.985 54.6H342.889V53.576H346.985V54.6ZM346.985 52.552H342.889V51.528H346.985V52.552ZM346.985 50.504H342.889V49.48H346.985V50.504ZM346.985 47.432H342.889V46.408H346.985V47.432ZM346.985 45.384H342.889V44.36H346.985V45.384ZM346.985 43.336H342.889V42.312H346.985V43.336ZM346.985 41.288H342.889V40.264H346.985V41.288ZM346.985 38.216H342.889V37.192H346.985V38.216ZM346.985 36.168H342.889V35.144H346.985V36.168ZM346.985 34.12H342.889V33.096H346.985V34.12ZM346.985 32.072H342.889V31.048H346.985V32.072ZM346.985 29H342.889V27.976H346.985V29ZM346.985 26.952H342.889V25.928H346.985V26.952ZM349.033 43.336H346.985V42.312H349.033V43.336ZM349.033 39.24H346.985V38.216H349.033V39.24ZM349.033 34.12H346.985V33.096H349.033V34.12ZM349.033 30.024H346.985V29H349.033V30.024ZM350.569 93H349.545V30.536H350.569V93ZM353.129 91.464H351.081V90.44H353.129V91.464ZM353.129 89.416H351.081V88.392H353.129V89.416ZM353.129 87.368H351.081V86.344H353.129V87.368ZM353.129 84.296H351.081V83.272H353.129V84.296ZM353.129 82.248H351.081V81.224H353.129V82.248ZM353.129 80.2H351.081V79.176H353.129V80.2ZM353.129 78.152H351.081V77.128H353.129V78.152ZM353.129 75.08H351.081V74.056H353.129V75.08ZM353.129 73.032H351.081V72.008H353.129V73.032ZM353.129 70.984H351.081V69.96H353.129V70.984ZM353.129 68.936H351.081V67.912H353.129V68.936ZM353.129 65.864H351.081V64.84H353.129V65.864ZM353.129 63.816H351.081V62.792H353.129V63.816ZM353.129 61.768H351.081V60.744H353.129V61.768ZM353.129 59.72H351.081V58.696H353.129V59.72ZM353.129 56.648H351.081V55.624H353.129V56.648ZM353.129 54.6H351.081V53.576H353.129V54.6ZM353.129 52.552H351.081V51.528H353.129V52.552ZM353.129 50.504H351.081V49.48H353.129V50.504ZM353.129 47.432H351.081V46.408H353.129V47.432ZM353.129 45.384H351.081V44.36H353.129V45.384ZM353.129 43.336H351.081V42.312H353.129V43.336ZM353.129 41.288H351.081V40.264H353.129V41.288ZM353.129 38.216H351.081V37.192H353.129V38.216ZM353.129 36.168H351.081V35.144H353.129V36.168ZM353.129 34.12H351.081V33.096H353.129V34.12ZM353.129 32.072H351.081V31.048H353.129V32.072ZM350.569 30.536H349.545V26.44H350.569V30.536ZM352.617 30.536H351.593V26.44H352.617V30.536ZM355.689 93H354.665V40.776H355.689V93ZM358.761 93H357.737V40.776H358.761V93ZM361.321 91.464H360.297V90.44H361.321V91.464ZM361.321 89.416H360.297V88.392H361.321V89.416ZM361.321 87.368H360.297V86.344H361.321V87.368ZM361.321 84.296H360.297V83.272H361.321V84.296ZM361.321 82.248H360.297V81.224H361.321V82.248ZM361.321 80.2H360.297V79.176H361.321V80.2ZM361.321 78.152H360.297V77.128H361.321V78.152ZM361.321 75.08H360.297V74.056H361.321V75.08ZM361.321 73.032H360.297V72.008H361.321V73.032ZM361.321 70.984H360.297V69.96H361.321V70.984ZM361.321 68.936H360.297V67.912H361.321V68.936ZM361.321 65.864H360.297V64.84H361.321V65.864ZM361.321 63.816H360.297V62.792H361.321V63.816ZM361.321 61.768H360.297V60.744H361.321V61.768ZM361.321 59.72H360.297V58.696H361.321V59.72ZM361.321 56.648H360.297V55.624H361.321V56.648ZM361.321 54.6H360.297V53.576H361.321V54.6ZM361.321 52.552H360.297V51.528H361.321V52.552ZM361.321 50.504H360.297V49.48H361.321V50.504ZM361.321 47.432H360.297V46.408H361.321V47.432ZM361.321 45.384H360.297V44.36H361.321V45.384ZM361.321 43.336H360.297V42.312H361.321V43.336ZM363.881 93H362.857V62.28H363.881V93ZM365.929 90.952H364.905V62.28H365.929V90.952ZM366.441 59.72H361.321V58.696H366.441V59.72ZM366.441 57.672H361.321V56.648H366.441V57.672ZM366.441 55.624H361.321V54.6H366.441V55.624ZM366.441 52.552H361.321V51.528H366.441V52.552ZM366.441 50.504H361.321V49.48H366.441V50.504ZM366.441 48.456H361.321V47.432H366.441V48.456ZM366.441 46.408H361.321V45.384H366.441V46.408ZM366.441 43.336H361.321V42.312H366.441V43.336ZM366.441 41.288H361.321V40.264H366.441V41.288ZM355.689 39.752H354.665V26.44H355.689V39.752ZM358.761 39.752H357.737V26.44H358.761V39.752ZM360.809 39.752H359.785V26.44H360.809V39.752ZM362.857 39.752H361.833V26.44H362.857V39.752ZM364.905 39.752H363.881V26.44H364.905V39.752ZM339.305 24.392H338.281V11.08H339.305V24.392ZM342.377 24.392H341.353V11.08H342.377V24.392ZM344.425 24.392H343.401V11.08H344.425V24.392ZM346.473 24.392H345.449V11.08H346.473V24.392ZM352.105 22.856H349.033V21.832H352.105V22.856ZM352.105 20.808H349.033V19.784H352.105V20.808ZM352.105 18.76H349.033V17.736H352.105V18.76ZM352.105 15.688H349.033V14.664H352.105V15.688ZM352.105 13.64H349.033V12.616H352.105V13.64ZM352.105 11.592H349.033V10.568H352.105V11.592ZM355.689 24.392H354.665V12.104H355.689V24.392ZM357.737 24.392H356.713V12.104H357.737V24.392ZM361.833 24.392H360.809V15.176H361.833V24.392ZM363.881 24.392H362.857V15.176H363.881V24.392ZM366.441 22.856H364.393V21.832H366.441V22.856ZM366.441 20.808H364.393V19.784H366.441V20.808ZM366.441 18.76H364.393V17.736H366.441V18.76ZM366.441 15.688H364.393V14.664H366.441V15.688ZM361.833 14.152H360.809V12.104H361.833V14.152ZM363.881 14.152H362.857V12.104H363.881V14.152ZM365.929 14.152H364.905V12.104H365.929V14.152ZM339.305 10.056H338.281V3.91199H339.305V10.056ZM342.377 10.056H341.353V2.88799H342.377V10.056ZM344.425 10.056H343.401V2.88799H344.425V10.056ZM346.473 10.056H345.449V2.88799H346.473V10.056ZM348.521 10.056H347.497V2.88799H348.521V10.056ZM351.593 10.056H350.569V2.88799H351.593V10.056ZM353.641 10.056H352.617V2.88799H353.641V10.056ZM355.689 10.056H354.665V2.88799H355.689V10.056ZM366.441 9.544H357.225V8.52H366.441V9.544ZM366.441 6.47199H357.225V5.448H366.441V6.47199ZM364.393 4.424H357.225V3.39999H364.393V4.424ZM378.632 74.568H377.608V46.92H378.632V74.568ZM381.704 79.688H380.68V41.8H381.704V79.688ZM383.752 82.76H382.728V37.704H383.752V82.76ZM385.8 85.832H384.776V36.68H385.8V85.832ZM387.848 87.88H386.824V36.68H387.848V87.88ZM390.92 88.904H389.896V36.68H390.92V88.904ZM392.968 90.952H391.944V36.68H392.968V90.952ZM395.016 90.952H393.992V36.68H395.016V90.952ZM397.064 91.976H396.04V36.68H397.064V91.976ZM400.136 93H399.112V36.68H400.136V93ZM402.184 93H401.16V36.68H402.184V93ZM404.232 93H403.208V36.68H404.232V93ZM406.28 93H405.256V36.68H406.28V93ZM409.352 93H408.328V73.544H409.352V93ZM409.352 67.4H408.328V52.04H409.352V67.4ZM409.352 45.896H408.328V36.68H409.352V45.896ZM411.4 93H410.376V75.592H411.4V93ZM411.4 67.4H410.376V52.04H411.4V67.4ZM411.4 44.872H410.376V36.68H411.4V44.872ZM413.448 93H412.424V75.592H413.448V93ZM413.448 67.4H412.424V52.04H413.448V67.4ZM413.448 43.848H412.424V36.68H413.448V43.848ZM415.496 93H414.472V74.568H415.496V93ZM415.496 67.4H414.472V52.04H415.496V67.4ZM415.496 44.872H414.472V36.68H415.496V44.872ZM418.568 93H417.544V73.544H418.568V93ZM418.568 67.4H417.544V52.04H418.568V67.4ZM418.568 51.016H417.544V36.68H418.568V51.016ZM420.616 93H419.592V72.52H420.616V93ZM420.616 67.4H419.592V36.68H420.616V67.4ZM428.296 92.488H420.104V91.464H428.296V92.488ZM432.392 90.44H420.104V89.416H432.392V90.44ZM432.392 88.392H420.104V87.368H432.392V88.392ZM432.392 86.344H420.104V85.32H432.392V86.344ZM432.392 83.272H420.104V82.248H432.392V83.272ZM432.392 81.224H420.104V80.2H432.392V81.224ZM432.392 79.176H420.104V78.152H432.392V79.176ZM432.392 77.128H420.104V76.104H432.392V77.128ZM432.392 74.056H420.104V73.032H432.392V74.056ZM432.392 67.912H420.104V66.888H432.392V67.912ZM432.392 64.84H420.104V63.816H432.392V64.84ZM432.392 62.792H420.104V61.768H432.392V62.792ZM432.392 60.744H420.104V59.72H432.392V60.744ZM432.392 58.696H420.104V57.672H432.392V58.696ZM432.392 55.624H420.104V54.6H432.392V55.624ZM432.392 53.576H420.104V52.552H432.392V53.576ZM432.392 51.528H420.104V50.504H432.392V51.528ZM432.392 49.48H420.104V48.456H432.392V49.48ZM432.392 46.408H420.104V45.384H432.392V46.408ZM432.392 44.36H420.104V43.336H432.392V44.36ZM432.392 42.312H420.104V41.288H432.392V42.312ZM432.392 40.264H420.104V39.24H432.392V40.264ZM432.392 37.192H420.104V36.168H432.392V37.192ZM435.976 88.904H434.952V72.52H435.976V88.904ZM435.976 67.4H434.952V61.256H435.976V67.4ZM438.024 87.88H437V72.52H438.024V87.88ZM438.024 67.4H437V61.256H438.024V67.4ZM437.512 59.72H433.416V58.696H437.512V59.72ZM437.512 57.672H433.416V56.648H437.512V57.672ZM437.512 55.624H433.416V54.6H437.512V55.624ZM437.512 52.552H433.416V51.528H437.512V52.552ZM437.512 50.504H433.416V49.48H437.512V50.504ZM437.512 48.456H433.416V47.432H437.512V48.456ZM437.512 46.408H433.416V45.384H437.512V46.408ZM437.512 43.336H433.416V42.312H437.512V43.336ZM437.512 41.288H433.416V40.264H437.512V41.288ZM437.512 39.24H433.416V38.216H437.512V39.24ZM437.512 37.192H433.416V36.168H437.512V37.192ZM442.12 84.808H441.096V72.52H442.12V84.808ZM442.12 67.4H441.096V48.968H442.12V67.4ZM444.168 81.736H443.144V72.52H444.168V81.736ZM444.168 67.4H443.144V48.968H444.168V67.4ZM447.24 77.64H446.216V73.544H447.24V77.64ZM447.24 66.376H446.216V48.968H447.24V66.376ZM448.776 64.84H446.728V63.816H448.776V64.84ZM448.776 62.792H446.728V61.768H448.776V62.792ZM448.776 60.744H446.728V59.72H448.776V60.744ZM448.776 58.696H446.728V57.672H448.776V58.696ZM448.776 55.624H446.728V54.6H448.776V55.624ZM447.752 53.576H446.728V52.552H447.752V53.576ZM447.752 51.528H446.728V50.504H447.752V51.528ZM442.12 48.968H441.096V40.776H442.12V48.968ZM444.168 48.968H443.144V40.776H444.168V48.968ZM446.728 47.432H445.704V46.408H446.728V47.432ZM442.12 40.776H441.096V37.704H442.12V40.776ZM385.8 35.656H384.776V32.712H385.8V35.656ZM390.92 35.656H389.896V31.56H390.92V35.656ZM392.968 35.656H391.944V30.536H392.968V35.656ZM411.912 34.12H394.504V33.096H411.912V34.12ZM411.912 32.072H394.504V31.048H411.912V32.072ZM414.472 35.656H413.448V31.56H414.472V35.656ZM416.52 35.656H415.496V31.56H416.52V35.656ZM418.568 35.656H417.544V31.56H418.568V35.656ZM421.64 35.656H420.616V31.56H421.64V35.656ZM423.688 35.656H422.664V31.56H423.688V35.656ZM425.736 35.656H424.712V29.512H425.736V35.656ZM428.808 35.656H427.784V29.512H428.808V35.656ZM430.856 35.656H429.832V29.512H430.856V35.656ZM432.904 35.656H431.88V30.536H432.904V35.656ZM434.952 35.656H433.928V31.56H434.952V35.656ZM438.024 35.656H437V33.608H438.024V35.656ZM400.136 28.488H399.112V27.464H400.136V28.488ZM402.184 28.488H401.16V26.44H402.184V28.488ZM404.232 28.488H403.208V26.44H404.232V28.488ZM406.28 28.488H405.256V26.44H406.28V28.488ZM409.352 28.488H408.328V26.44H409.352V28.488ZM411.4 28.488H410.376V26.44H411.4V28.488ZM413.448 28.488H412.424V26.44H413.448V28.488ZM415.496 28.488H414.472V26.44H415.496V28.488ZM418.568 28.488H417.544V26.44H418.568V28.488ZM420.616 28.488H419.592V26.44H420.616V28.488ZM423.176 26.952H420.104V25.928H423.176V26.952ZM426.76 28.488H425.736V27.464H426.76V28.488ZM459.406 91.976H458.382V67.4H459.406V91.976ZM459.406 27.464H458.382V10.056H459.406V27.464ZM461.454 93H460.43V64.328H461.454V93ZM461.454 29.512H460.43V10.056H461.454V29.512ZM464.526 93H463.502V62.28H464.526V93ZM464.526 29.512H463.502V10.056H464.526V29.512ZM466.574 93H465.55V59.208H466.574V93ZM466.574 29.512H465.55V10.056H466.574V29.512ZM468.622 93H467.598V57.16H468.622V93ZM468.622 29.512H467.598V10.056H468.622V29.512ZM470.67 93H469.646V55.112H470.67V93ZM470.67 29.512H469.646V10.056H470.67V29.512ZM477.326 91.464H473.23V90.44H477.326V91.464ZM477.326 89.416H473.23V88.392H477.326V89.416ZM477.326 87.368H473.23V86.344H477.326V87.368ZM477.326 84.296H473.23V83.272H477.326V84.296ZM477.326 82.248H473.23V81.224H477.326V82.248ZM477.326 80.2H473.23V79.176H477.326V80.2ZM477.326 78.152H473.23V77.128H477.326V78.152ZM477.326 75.08H473.23V74.056H477.326V75.08ZM477.326 73.032H473.23V72.008H477.326V73.032ZM477.326 70.984H473.23V69.96H477.326V70.984ZM477.326 68.936H473.23V67.912H477.326V68.936ZM477.326 65.864H473.23V64.84H477.326V65.864ZM477.326 63.816H473.23V62.792H477.326V63.816ZM477.326 61.768H473.23V60.744H477.326V61.768ZM477.326 59.72H473.23V58.696H477.326V59.72ZM477.326 56.648H473.23V55.624H477.326V56.648ZM477.326 54.6H473.23V53.576H477.326V54.6ZM477.326 52.552H473.23V51.528H477.326V52.552ZM477.326 50.504H475.278V49.48H477.326V50.504ZM477.326 29H473.23V27.976H477.326V29ZM477.326 26.952H473.23V25.928H477.326V26.952ZM477.326 24.904H473.23V23.88H477.326V24.904ZM477.326 22.856H473.23V21.832H477.326V22.856ZM477.326 19.784H473.23V18.76H477.326V19.784ZM477.326 17.736H473.23V16.712H477.326V17.736ZM477.326 15.688H473.23V14.664H477.326V15.688ZM477.326 13.64H473.23V12.616H477.326V13.64ZM477.326 10.568H473.23V9.544H477.326V10.568ZM480.91 93H479.886V47.944H480.91V93ZM480.398 45.384H479.374V44.36H480.398V45.384ZM480.398 30.024H478.35V29H480.398V30.024ZM480.398 26.952H478.35V25.928H480.398V26.952ZM480.398 24.904H478.35V23.88H480.398V24.904ZM480.398 22.856H478.35V21.832H480.398V22.856ZM480.398 20.808H478.35V19.784H480.398V20.808ZM480.398 17.736H478.35V16.712H480.398V17.736ZM480.398 15.688H478.35V14.664H480.398V15.688ZM480.398 13.64H478.35V12.616H480.398V13.64ZM480.398 11.592H478.35V10.568H480.398V11.592ZM483.982 93H482.958V46.92H483.982V93ZM486.03 93H485.006V46.92H486.03V93ZM488.078 93H487.054V46.92H488.078V93ZM490.126 93H489.102V46.92H490.126V93ZM493.198 93H492.174V46.92H493.198V93ZM499.854 91.464H493.71V90.44H499.854V91.464ZM499.854 89.416H493.71V88.392H499.854V89.416ZM499.854 87.368H493.71V86.344H499.854V87.368ZM499.854 84.296H493.71V83.272H499.854V84.296ZM499.854 82.248H493.71V81.224H499.854V82.248ZM499.854 80.2H493.71V79.176H499.854V80.2ZM499.854 78.152H493.71V77.128H499.854V78.152ZM499.854 75.08H493.71V74.056H499.854V75.08ZM499.854 73.032H493.71V72.008H499.854V73.032ZM499.854 70.984H493.71V69.96H499.854V70.984ZM499.854 68.936H493.71V67.912H499.854V68.936ZM499.854 65.864H493.71V64.84H499.854V65.864ZM499.854 63.816H493.71V62.792H499.854V63.816ZM499.854 61.768H493.71V60.744H499.854V61.768ZM499.854 59.72H493.71V58.696H499.854V59.72ZM499.854 56.648H493.71V55.624H499.854V56.648ZM499.854 54.6H493.71V53.576H499.854V54.6ZM499.854 52.552H493.71V51.528H499.854V52.552ZM499.854 50.504H493.71V49.48H499.854V50.504ZM499.854 47.432H493.71V46.408H499.854V47.432ZM483.982 46.92H482.958V41.8H483.982V46.92ZM483.982 29.512H482.958V22.344H483.982V29.512ZM486.03 46.92H485.006V39.752H486.03V46.92ZM486.03 29.512H485.006V22.344H486.03V29.512ZM488.078 46.92H487.054V37.704H488.078V46.92ZM488.078 29.512H487.054V22.344H488.078V29.512ZM490.126 46.92H489.102V34.632H490.126V46.92ZM490.126 29.512H489.102V22.344H490.126V29.512ZM493.198 46.92H492.174V32.584H493.198V46.92ZM493.198 29.512H492.174V22.344H493.198V29.512ZM495.246 46.92H494.222V22.344H495.246V46.92ZM497.294 46.92H496.27V22.344H497.294V46.92ZM499.342 46.92H498.318V22.344H499.342V46.92ZM498.83 19.784H481.422V18.76H498.83V19.784ZM498.83 17.736H481.422V16.712H498.83V17.736ZM498.83 15.688H481.422V14.664H498.83V15.688ZM498.83 13.64H481.422V12.616H498.83V13.64ZM502.414 93H501.39V67.4H502.414V93ZM502.414 64.328H501.39V26.44H502.414V64.328ZM504.462 93H503.438V67.4H504.462V93ZM504.462 62.28H503.438V26.44H504.462V62.28ZM506.51 93H505.486V67.4H506.51V93ZM506.51 59.208H505.486V26.44H506.51V59.208ZM509.582 93H508.558V67.4H509.582V93ZM509.582 57.16H508.558V26.44H509.582V57.16ZM511.63 93H510.606V67.4H511.63V93ZM511.63 54.088H510.606V26.44H511.63V54.088ZM524.43 91.464H512.142V90.44H524.43V91.464ZM524.43 89.416H512.142V88.392H524.43V89.416ZM524.43 87.368H512.142V86.344H524.43V87.368ZM524.43 84.296H512.142V83.272H524.43V84.296ZM524.43 82.248H512.142V81.224H524.43V82.248ZM524.43 80.2H512.142V79.176H524.43V80.2ZM524.43 78.152H512.142V77.128H524.43V78.152ZM524.43 75.08H512.142V74.056H524.43V75.08ZM524.43 73.032H512.142V72.008H524.43V73.032ZM524.43 70.984H512.142V69.96H524.43V70.984ZM524.43 68.936H512.142V67.912H524.43V68.936ZM513.166 52.552H512.142V51.528H513.166V52.552ZM515.214 50.504H512.142V49.48H515.214V50.504ZM517.262 47.432H512.142V46.408H517.262V47.432ZM519.31 45.384H512.142V44.36H519.31V45.384ZM521.358 43.336H512.142V42.312H521.358V43.336ZM523.406 41.288H512.142V40.264H523.406V41.288ZM524.43 38.216H512.142V37.192H524.43V38.216ZM524.43 36.168H512.142V35.144H524.43V36.168ZM524.43 34.12H512.142V33.096H524.43V34.12ZM524.43 32.072H512.142V31.048H524.43V32.072ZM524.43 29H512.142V27.976H524.43V29ZM524.43 26.952H512.142V25.928H524.43V26.952ZM528.014 93H526.99V67.4H528.014V93ZM528.014 36.68H526.99V28.488H528.014V36.68ZM530.062 93H529.038V67.4H530.062V93ZM530.062 33.608H529.038V28.488H530.062V33.608ZM532.11 93H531.086V67.4H532.11V93ZM532.11 31.56H531.086V28.488H532.11V31.56ZM534.158 93H533.134V68.424H534.158V93ZM537.23 89.928H536.206V70.472H537.23V89.928ZM534.67 26.952H525.454V25.928H534.67V26.952ZM502.414 25.416H501.39V16.2H502.414V25.416ZM504.462 25.416H503.438V16.2H504.462V25.416ZM506.51 25.416H505.486V16.2H506.51V25.416ZM509.582 25.416H508.558V16.2H509.582V25.416ZM511.63 25.416H510.606V16.2H511.63V25.416ZM513.678 25.416H512.654V16.2H513.678V25.416ZM515.726 25.416H514.702V16.2H515.726V25.416ZM518.798 25.416H517.774V16.2H518.798V25.416ZM520.846 25.416H519.822V16.2H520.846V25.416ZM534.67 23.88H522.382V22.856H534.67V23.88ZM534.67 21.832H522.382V20.808H534.67V21.832ZM534.67 19.784H522.382V18.76H534.67V19.784ZM534.67 16.712H522.382V15.688H534.67V16.712ZM502.414 16.2H501.39V11.08H502.414V16.2ZM504.462 16.2H503.438V11.08H504.462V16.2ZM506.51 16.2H505.486V11.08H506.51V16.2ZM509.582 16.2H508.558V11.08H509.582V16.2ZM511.63 16.2H510.606V11.08H511.63V16.2ZM513.678 16.2H512.654V11.08H513.678V16.2ZM515.726 16.2H514.702V11.08H515.726V16.2ZM518.798 16.2H517.774V11.08H518.798V16.2ZM520.846 16.2H519.822V11.08H520.846V16.2ZM522.894 16.2H521.87V11.08H522.894V16.2ZM524.942 16.2H523.918V11.08H524.942V16.2ZM528.014 16.2H526.99V11.08H528.014V16.2ZM530.062 16.2H529.038V11.08H530.062V16.2ZM532.11 16.2H531.086V11.08H532.11V16.2ZM534.158 16.2H533.134V11.08H534.158V16.2ZM459.406 10.056H458.382V6.98399H459.406V10.056ZM461.454 10.056H460.43V4.936H461.454V10.056ZM464.526 10.056H463.502V4.936H464.526V10.056ZM466.574 10.056H465.55V4.936H466.574V10.056ZM468.622 10.056H467.598V4.936H468.622V10.056ZM470.67 10.056H469.646V4.936H470.67V10.056ZM473.742 10.056H472.718V4.936H473.742V10.056ZM475.79 10.056H474.766V4.936H475.79V10.056ZM477.838 10.056H476.814V4.936H477.838V10.056ZM496.782 8.52H479.374V7.49599H496.782V8.52ZM496.782 6.47199H479.374V5.448H496.782V6.47199ZM499.342 10.056H498.318V4.936H499.342V10.056ZM502.414 10.056H501.39V4.936H502.414V10.056ZM504.462 10.056H503.438V4.936H504.462V10.056ZM508.558 10.056H507.534V4.936H508.558V10.056ZM510.606 10.056H509.582V4.936H510.606V10.056ZM513.678 10.056H512.654V4.936H513.678V10.056ZM515.726 10.056H514.702V4.936H515.726V10.056ZM517.774 10.056H516.75V4.936H517.774V10.056ZM519.822 10.056H518.798V4.936H519.822V10.056ZM534.67 8.52H522.382V7.49599H534.67V8.52ZM533.646 6.47199H522.382V5.448H533.646V6.47199ZM508.558 4.936H507.534V2.88799H508.558V4.936ZM513.678 4.936H512.654V2.88799H513.678V4.936ZM517.774 4.936H516.75V2.88799H517.774V4.936ZM522.894 4.936H521.87V2.88799H522.894V4.936ZM526.99 4.936H525.966V2.88799H526.99V4.936ZM549.18 78.664H548.156V35.656H549.18V78.664ZM551.228 83.784H550.204V35.656H551.228V83.784ZM553.276 86.856H552.252V35.656H553.276V86.856ZM556.348 88.904H555.324V35.656H556.348V88.904ZM558.396 90.952H557.372V35.656H558.396V90.952ZM560.444 91.976H559.42V35.656H560.444V91.976ZM562.492 93H561.468V35.656H562.492V93ZM565.564 93H564.54V35.656H565.564V93ZM567.612 93H566.588V35.656H567.612V93ZM569.66 93H568.636V35.656H569.66V93ZM571.708 93H570.684V35.656H571.708V93ZM574.78 93H573.756V35.656H574.78V93ZM576.828 93H575.804V35.656H576.828V93ZM578.876 93H577.852V67.4H578.876V93ZM583.484 92.488H579.388V91.464H583.484V92.488ZM583.484 90.44H579.388V89.416H583.484V90.44ZM583.484 88.392H579.388V87.368H583.484V88.392ZM583.484 86.344H579.388V85.32H583.484V86.344ZM583.484 83.272H579.388V82.248H583.484V83.272ZM583.484 81.224H579.388V80.2H583.484V81.224ZM583.484 79.176H579.388V78.152H583.484V79.176ZM583.484 77.128H579.388V76.104H583.484V77.128ZM583.484 74.056H579.388V73.032H583.484V74.056ZM583.484 72.008H579.388V70.984H583.484V72.008ZM586.044 90.952H585.02V71.496H586.044V90.952ZM588.092 89.928H587.068V70.472H588.092V89.928ZM591.164 87.88H590.14V65.352H591.164V87.88ZM593.212 89.928H592.188V42.824H593.212V89.928ZM592.7 41.288H590.652V40.264H592.7V41.288ZM592.7 39.24H590.652V38.216H592.7V39.24ZM592.7 36.168H590.652V35.144H592.7V36.168ZM596.284 93H595.26V37.704H596.284V93ZM598.332 93H597.308V37.704H598.332V93ZM600.38 93H599.356V37.704H600.38V93ZM602.428 93H601.404V37.704H602.428V93ZM605.5 93H604.476V37.704H605.5V93ZM607.548 93H606.524V37.704H607.548V93ZM611.644 93H610.62V56.136H611.644V93ZM613.692 93H612.668V56.136H613.692V93ZM615.74 93H614.716V56.136H615.74V93ZM617.788 93H616.764V74.568H617.788V93ZM620.86 90.952H619.836V74.568H620.86V90.952ZM621.372 73.032H616.252V72.008H621.372V73.032ZM621.372 69.96H616.252V68.936H621.372V69.96ZM621.372 67.912H616.252V66.888H621.372V67.912ZM621.372 65.864H616.252V64.84H621.372V65.864ZM621.372 63.816H616.252V62.792H621.372V63.816ZM621.372 60.744H616.252V59.72H621.372V60.744ZM621.372 58.696H616.252V57.672H621.372V58.696ZM611.644 55.112H610.62V44.872H611.644V55.112ZM613.692 55.112H612.668V44.872H613.692V55.112ZM621.372 54.6H615.228V53.576H621.372V54.6ZM621.372 51.528H615.228V50.504H621.372V51.528ZM621.372 49.48H615.228V48.456H621.372V49.48ZM621.372 47.432H615.228V46.408H621.372V47.432ZM611.644 44.872H610.62V35.656H611.644V44.872ZM613.692 44.872H612.668V35.656H613.692V44.872ZM615.74 44.872H614.716V35.656H615.74V44.872ZM617.788 44.872H616.764V35.656H617.788V44.872ZM620.86 44.872H619.836V35.656H620.86V44.872ZM549.18 34.632H548.156V28.488H549.18V34.632ZM551.228 34.632H550.204V28.488H551.228V34.632ZM553.276 34.632H552.252V28.488H553.276V34.632ZM556.348 34.632H555.324V28.488H556.348V34.632ZM558.396 34.632H557.372V28.488H558.396V34.632ZM560.444 34.632H559.42V28.488H560.444V34.632ZM562.492 34.632H561.468V28.488H562.492V34.632ZM565.564 34.632H564.54V28.488H565.564V34.632ZM567.612 34.632H566.588V28.488H567.612V34.632ZM569.66 34.632H568.636V28.488H569.66V34.632ZM571.708 34.632H570.684V28.488H571.708V34.632ZM577.34 33.096H574.268V32.072H577.34V33.096ZM577.34 31.048H574.268V30.024H577.34V31.048ZM575.292 29H574.268V27.976H575.292V29ZM592.188 34.632H591.164V29.512H592.188V34.632ZM594.236 34.632H593.212V29.512H594.236V34.632ZM596.284 34.632H595.26V29.512H596.284V34.632ZM598.332 34.632H597.308V29.512H598.332V34.632ZM601.404 34.632H600.38V29.512H601.404V34.632ZM603.452 34.632H602.428V29.512H603.452V34.632ZM605.5 34.632H604.476V29.512H605.5V34.632ZM607.548 34.632H606.524V29.512H607.548V34.632ZM610.62 34.632H609.596V29.512H610.62V34.632ZM612.668 34.632H611.644V29.512H612.668V34.632ZM614.716 34.632H613.692V29.512H614.716V34.632ZM616.764 34.632H615.74V29.512H616.764V34.632ZM621.372 33.096H618.3V32.072H621.372V33.096ZM621.372 31.048H618.3V30.024H621.372V31.048ZM594.236 29.512H593.212V28.488H594.236V29.512ZM596.284 29.512H595.26V28.488H596.284V29.512ZM598.332 29.512H597.308V28.488H598.332V29.512ZM601.404 29.512H600.38V28.488H601.404V29.512ZM603.452 29.512H602.428V28.488H603.452V29.512ZM605.5 29.512H604.476V28.488H605.5V29.512ZM607.548 29.512H606.524V28.488H607.548V29.512ZM610.62 29.512H609.596V28.488H610.62V29.512ZM612.668 29.512H611.644V28.488H612.668V29.512ZM614.716 29.512H613.692V28.488H614.716V29.512ZM616.764 29.512H615.74V28.488H616.764V29.512ZM619.836 29.512H618.812V28.488H619.836V29.512ZM551.228 27.464H550.204V25.416H551.228V27.464ZM556.348 27.464H555.324V25.416H556.348V27.464ZM560.444 27.464H559.42V25.416H560.444V27.464ZM565.564 27.464H564.54V25.416H565.564V27.464ZM569.66 27.464H568.636V25.416H569.66V27.464ZM596.284 27.464H595.26V25.416H596.284V27.464ZM600.38 27.464H599.356V25.416H600.38V27.464ZM605.5 27.464H604.476V25.416H605.5V27.464ZM609.596 27.464H608.572V25.416H609.596V27.464ZM614.716 27.464H613.692V25.416H614.716V27.464ZM635.43 91.976H634.406V25.416H635.43V91.976ZM638.502 93H637.478V25.416H638.502V93ZM643.11 91.464H639.014V90.44H643.11V91.464ZM643.11 89.416H639.014V88.392H643.11V89.416ZM643.11 87.368H639.014V86.344H643.11V87.368ZM643.11 84.296H639.014V83.272H643.11V84.296ZM643.11 82.248H639.014V81.224H643.11V82.248ZM643.11 80.2H639.014V79.176H643.11V80.2ZM643.11 78.152H639.014V77.128H643.11V78.152ZM643.11 75.08H639.014V74.056H643.11V75.08ZM643.11 73.032H639.014V72.008H643.11V73.032ZM643.11 70.984H639.014V69.96H643.11V70.984ZM643.11 68.936H639.014V67.912H643.11V68.936ZM643.11 65.864H639.014V64.84H643.11V65.864ZM643.11 63.816H639.014V62.792H643.11V63.816ZM643.11 61.768H639.014V60.744H643.11V61.768ZM643.11 59.72H639.014V58.696H643.11V59.72ZM643.11 56.648H639.014V55.624H643.11V56.648ZM643.11 54.6H639.014V53.576H643.11V54.6ZM643.11 52.552H639.014V51.528H643.11V52.552ZM643.11 50.504H639.014V49.48H643.11V50.504ZM643.11 47.432H639.014V46.408H643.11V47.432ZM643.11 45.384H639.014V44.36H643.11V45.384ZM643.11 43.336H639.014V42.312H643.11V43.336ZM643.11 41.288H639.014V40.264H643.11V41.288ZM643.11 38.216H639.014V37.192H643.11V38.216ZM643.11 36.168H639.014V35.144H643.11V36.168ZM643.11 34.12H639.014V33.096H643.11V34.12ZM643.11 32.072H639.014V31.048H643.11V32.072ZM643.11 29H639.014V27.976H643.11V29ZM643.11 26.952H639.014V25.928H643.11V26.952ZM645.158 43.336H643.11V42.312H645.158V43.336ZM645.158 39.24H643.11V38.216H645.158V39.24ZM645.158 34.12H643.11V33.096H645.158V34.12ZM645.158 30.024H643.11V29H645.158V30.024ZM646.694 93H645.67V30.536H646.694V93ZM649.254 91.464H647.206V90.44H649.254V91.464ZM649.254 89.416H647.206V88.392H649.254V89.416ZM649.254 87.368H647.206V86.344H649.254V87.368ZM649.254 84.296H647.206V83.272H649.254V84.296ZM649.254 82.248H647.206V81.224H649.254V82.248ZM649.254 80.2H647.206V79.176H649.254V80.2ZM649.254 78.152H647.206V77.128H649.254V78.152ZM649.254 75.08H647.206V74.056H649.254V75.08ZM649.254 73.032H647.206V72.008H649.254V73.032ZM649.254 70.984H647.206V69.96H649.254V70.984ZM649.254 68.936H647.206V67.912H649.254V68.936ZM649.254 65.864H647.206V64.84H649.254V65.864ZM649.254 63.816H647.206V62.792H649.254V63.816ZM649.254 61.768H647.206V60.744H649.254V61.768ZM649.254 59.72H647.206V58.696H649.254V59.72ZM649.254 56.648H647.206V55.624H649.254V56.648ZM649.254 54.6H647.206V53.576H649.254V54.6ZM649.254 52.552H647.206V51.528H649.254V52.552ZM649.254 50.504H647.206V49.48H649.254V50.504ZM649.254 47.432H647.206V46.408H649.254V47.432ZM649.254 45.384H647.206V44.36H649.254V45.384ZM649.254 43.336H647.206V42.312H649.254V43.336ZM649.254 41.288H647.206V40.264H649.254V41.288ZM649.254 38.216H647.206V37.192H649.254V38.216ZM649.254 36.168H647.206V35.144H649.254V36.168ZM649.254 34.12H647.206V33.096H649.254V34.12ZM649.254 32.072H647.206V31.048H649.254V32.072ZM646.694 30.536H645.67V26.44H646.694V30.536ZM648.742 30.536H647.718V26.44H648.742V30.536ZM651.814 93H650.79V40.776H651.814V93ZM654.886 93H653.862V40.776H654.886V93ZM657.446 91.464H656.422V90.44H657.446V91.464ZM657.446 89.416H656.422V88.392H657.446V89.416ZM657.446 87.368H656.422V86.344H657.446V87.368ZM657.446 84.296H656.422V83.272H657.446V84.296ZM657.446 82.248H656.422V81.224H657.446V82.248ZM657.446 80.2H656.422V79.176H657.446V80.2ZM657.446 78.152H656.422V77.128H657.446V78.152ZM657.446 75.08H656.422V74.056H657.446V75.08ZM657.446 73.032H656.422V72.008H657.446V73.032ZM657.446 70.984H656.422V69.96H657.446V70.984ZM657.446 68.936H656.422V67.912H657.446V68.936ZM657.446 65.864H656.422V64.84H657.446V65.864ZM657.446 63.816H656.422V62.792H657.446V63.816ZM657.446 61.768H656.422V60.744H657.446V61.768ZM657.446 59.72H656.422V58.696H657.446V59.72ZM657.446 56.648H656.422V55.624H657.446V56.648ZM657.446 54.6H656.422V53.576H657.446V54.6ZM657.446 52.552H656.422V51.528H657.446V52.552ZM657.446 50.504H656.422V49.48H657.446V50.504ZM657.446 47.432H656.422V46.408H657.446V47.432ZM657.446 45.384H656.422V44.36H657.446V45.384ZM657.446 43.336H656.422V42.312H657.446V43.336ZM660.006 93H658.982V62.28H660.006V93ZM662.054 90.952H661.03V62.28H662.054V90.952ZM662.566 59.72H657.446V58.696H662.566V59.72ZM662.566 57.672H657.446V56.648H662.566V57.672ZM662.566 55.624H657.446V54.6H662.566V55.624ZM662.566 52.552H657.446V51.528H662.566V52.552ZM662.566 50.504H657.446V49.48H662.566V50.504ZM662.566 48.456H657.446V47.432H662.566V48.456ZM662.566 46.408H657.446V45.384H662.566V46.408ZM662.566 43.336H657.446V42.312H662.566V43.336ZM662.566 41.288H657.446V40.264H662.566V41.288ZM651.814 39.752H650.79V26.44H651.814V39.752ZM654.886 39.752H653.862V26.44H654.886V39.752ZM656.934 39.752H655.91V26.44H656.934V39.752ZM658.982 39.752H657.958V26.44H658.982V39.752ZM661.03 39.752H660.006V26.44H661.03V39.752ZM635.43 24.392H634.406V11.08H635.43V24.392ZM638.502 24.392H637.478V11.08H638.502V24.392ZM640.55 24.392H639.526V11.08H640.55V24.392ZM642.598 24.392H641.574V11.08H642.598V24.392ZM648.23 22.856H645.158V21.832H648.23V22.856ZM648.23 20.808H645.158V19.784H648.23V20.808ZM648.23 18.76H645.158V17.736H648.23V18.76ZM648.23 15.688H645.158V14.664H648.23V15.688ZM648.23 13.64H645.158V12.616H648.23V13.64ZM648.23 11.592H645.158V10.568H648.23V11.592ZM651.814 24.392H650.79V12.104H651.814V24.392ZM653.862 24.392H652.838V12.104H653.862V24.392ZM657.958 24.392H656.934V15.176H657.958V24.392ZM660.006 24.392H658.982V15.176H660.006V24.392ZM662.566 22.856H660.518V21.832H662.566V22.856ZM662.566 20.808H660.518V19.784H662.566V20.808ZM662.566 18.76H660.518V17.736H662.566V18.76ZM662.566 15.688H660.518V14.664H662.566V15.688ZM657.958 14.152H656.934V12.104H657.958V14.152ZM660.006 14.152H658.982V12.104H660.006V14.152ZM662.054 14.152H661.03V12.104H662.054V14.152ZM635.43 10.056H634.406V3.91199H635.43V10.056ZM638.502 10.056H637.478V2.88799H638.502V10.056ZM640.55 10.056H639.526V2.88799H640.55V10.056ZM642.598 10.056H641.574V2.88799H642.598V10.056ZM644.646 10.056H643.622V2.88799H644.646V10.056ZM647.718 10.056H646.694V2.88799H647.718V10.056ZM649.766 10.056H648.742V2.88799H649.766V10.056ZM651.814 10.056H650.79V2.88799H651.814V10.056ZM662.566 9.544H653.35V8.52H662.566V9.544ZM662.566 6.47199H653.35V5.448H662.566V6.47199ZM660.518 4.424H653.35V3.39999H660.518V4.424ZM676.805 78.664H675.781V35.656H676.805V78.664ZM678.853 83.784H677.829V35.656H678.853V83.784ZM680.901 86.856H679.877V35.656H680.901V86.856ZM683.973 88.904H682.949V35.656H683.973V88.904ZM686.021 90.952H684.997V35.656H686.021V90.952ZM688.069 91.976H687.045V35.656H688.069V91.976ZM690.117 93H689.093V35.656H690.117V93ZM693.189 93H692.165V35.656H693.189V93ZM695.237 93H694.213V35.656H695.237V93ZM697.285 93H696.261V35.656H697.285V93ZM699.333 93H698.309V35.656H699.333V93ZM702.405 93H701.381V35.656H702.405V93ZM704.453 93H703.429V35.656H704.453V93ZM706.501 93H705.477V67.4H706.501V93ZM711.109 92.488H707.013V91.464H711.109V92.488ZM711.109 90.44H707.013V89.416H711.109V90.44ZM711.109 88.392H707.013V87.368H711.109V88.392ZM711.109 86.344H707.013V85.32H711.109V86.344ZM711.109 83.272H707.013V82.248H711.109V83.272ZM711.109 81.224H707.013V80.2H711.109V81.224ZM711.109 79.176H707.013V78.152H711.109V79.176ZM711.109 77.128H707.013V76.104H711.109V77.128ZM711.109 74.056H707.013V73.032H711.109V74.056ZM711.109 72.008H707.013V70.984H711.109V72.008ZM713.669 90.952H712.645V71.496H713.669V90.952ZM715.717 89.928H714.693V70.472H715.717V89.928ZM718.789 87.88H717.765V65.352H718.789V87.88ZM720.837 89.928H719.813V42.824H720.837V89.928ZM720.325 41.288H718.277V40.264H720.325V41.288ZM720.325 39.24H718.277V38.216H720.325V39.24ZM720.325 36.168H718.277V35.144H720.325V36.168ZM723.909 93H722.885V37.704H723.909V93ZM725.957 93H724.933V37.704H725.957V93ZM728.005 93H726.981V37.704H728.005V93ZM730.053 93H729.029V37.704H730.053V93ZM733.125 93H732.101V37.704H733.125V93ZM735.173 93H734.149V37.704H735.173V93ZM739.269 93H738.245V56.136H739.269V93ZM741.317 93H740.293V56.136H741.317V93ZM743.365 93H742.341V56.136H743.365V93ZM745.413 93H744.389V74.568H745.413V93ZM748.485 90.952H747.461V74.568H748.485V90.952ZM748.997 73.032H743.877V72.008H748.997V73.032ZM748.997 69.96H743.877V68.936H748.997V69.96ZM748.997 67.912H743.877V66.888H748.997V67.912ZM748.997 65.864H743.877V64.84H748.997V65.864ZM748.997 63.816H743.877V62.792H748.997V63.816ZM748.997 60.744H743.877V59.72H748.997V60.744ZM748.997 58.696H743.877V57.672H748.997V58.696ZM739.269 55.112H738.245V44.872H739.269V55.112ZM741.317 55.112H740.293V44.872H741.317V55.112ZM748.997 54.6H742.853V53.576H748.997V54.6ZM748.997 51.528H742.853V50.504H748.997V51.528ZM748.997 49.48H742.853V48.456H748.997V49.48ZM748.997 47.432H742.853V46.408H748.997V47.432ZM739.269 44.872H738.245V35.656H739.269V44.872ZM741.317 44.872H740.293V35.656H741.317V44.872ZM743.365 44.872H742.341V35.656H743.365V44.872ZM745.413 44.872H744.389V35.656H745.413V44.872ZM748.485 44.872H747.461V35.656H748.485V44.872ZM676.805 34.632H675.781V28.488H676.805V34.632ZM678.853 34.632H677.829V28.488H678.853V34.632ZM680.901 34.632H679.877V28.488H680.901V34.632ZM683.973 34.632H682.949V28.488H683.973V34.632ZM686.021 34.632H684.997V28.488H686.021V34.632ZM688.069 34.632H687.045V28.488H688.069V34.632ZM690.117 34.632H689.093V28.488H690.117V34.632ZM693.189 34.632H692.165V28.488H693.189V34.632ZM695.237 34.632H694.213V28.488H695.237V34.632ZM697.285 34.632H696.261V28.488H697.285V34.632ZM699.333 34.632H698.309V28.488H699.333V34.632ZM704.965 33.096H701.893V32.072H704.965V33.096ZM704.965 31.048H701.893V30.024H704.965V31.048ZM702.917 29H701.893V27.976H702.917V29ZM719.813 34.632H718.789V29.512H719.813V34.632ZM721.861 34.632H720.837V29.512H721.861V34.632ZM723.909 34.632H722.885V29.512H723.909V34.632ZM725.957 34.632H724.933V29.512H725.957V34.632ZM729.029 34.632H728.005V29.512H729.029V34.632ZM731.077 34.632H730.053V29.512H731.077V34.632ZM733.125 34.632H732.101V29.512H733.125V34.632ZM735.173 34.632H734.149V29.512H735.173V34.632ZM738.245 34.632H737.221V29.512H738.245V34.632ZM740.293 34.632H739.269V29.512H740.293V34.632ZM742.341 34.632H741.317V29.512H742.341V34.632ZM744.389 34.632H743.365V29.512H744.389V34.632ZM748.997 33.096H745.925V32.072H748.997V33.096ZM748.997 31.048H745.925V30.024H748.997V31.048ZM721.861 29.512H720.837V28.488H721.861V29.512ZM723.909 29.512H722.885V28.488H723.909V29.512ZM725.957 29.512H724.933V28.488H725.957V29.512ZM729.029 29.512H728.005V28.488H729.029V29.512ZM731.077 29.512H730.053V28.488H731.077V29.512ZM733.125 29.512H732.101V28.488H733.125V29.512ZM735.173 29.512H734.149V28.488H735.173V29.512ZM738.245 29.512H737.221V28.488H738.245V29.512ZM740.293 29.512H739.269V28.488H740.293V29.512ZM742.341 29.512H741.317V28.488H742.341V29.512ZM744.389 29.512H743.365V28.488H744.389V29.512ZM747.461 29.512H746.437V28.488H747.461V29.512ZM678.853 27.464H677.829V25.416H678.853V27.464ZM683.973 27.464H682.949V25.416H683.973V27.464ZM688.069 27.464H687.045V25.416H688.069V27.464ZM693.189 27.464H692.165V25.416H693.189V27.464ZM697.285 27.464H696.261V25.416H697.285V27.464ZM723.909 27.464H722.885V25.416H723.909V27.464ZM728.005 27.464H726.981V25.416H728.005V27.464ZM733.125 27.464H732.101V25.416H733.125V27.464ZM737.221 27.464H736.197V25.416H737.221V27.464ZM742.341 27.464H741.317V25.416H742.341V27.464Z" fill="black"/>
</svg>
