<svg width="568" height="105" viewBox="0 0 568 105" fill="none" xmlns="http://www.w3.org/2000/svg">
<path d="M17.296 103V0.0879974H21.136V103H17.296ZM0.4 103V0.0879974H4.24V103H0.4ZM8.848 103V0.0879974H12.688V103H8.848ZM25.744 59.992V56.152H55.824C60.688 56.152 65.0827 55.0853 69.008 52.952C73.0187 50.8187 76.176 47.7893 78.48 43.864C80.8693 39.9387 82.064 35.3307 82.064 30.04C82.064 24.7493 80.8693 20.1413 78.48 16.216C76.176 12.2907 73.0187 9.26133 69.008 7.128C65.0827 4.99466 60.688 3.92799 55.824 3.92799H25.744V0.0879974H55.824C61.3707 0.0879974 66.4053 1.368 70.928 3.92799C75.536 6.40266 79.1627 9.90133 81.808 14.424C84.5387 18.8613 85.904 24.0667 85.904 30.04C85.904 36.0133 84.5387 41.2613 81.808 45.784C79.1627 50.2213 75.536 53.72 70.928 56.28C66.4053 58.7547 61.3707 59.992 55.824 59.992H25.744ZM25.744 51.544V47.704H55.824C60.7733 47.704 64.9547 46.168 68.368 43.096C71.8667 39.9387 73.616 35.5867 73.616 30.04C73.616 24.4933 71.8667 20.184 68.368 17.112C64.9547 13.9547 60.7733 12.376 55.824 12.376H25.744V8.536H55.824C59.8347 8.536 63.4613 9.432 66.704 11.224C69.9467 12.9307 72.5493 15.4053 74.512 18.648C76.4747 21.8053 77.456 25.6027 77.456 30.04C77.456 34.4773 76.4747 38.3173 74.512 41.56C72.5493 44.7173 69.9467 47.192 66.704 48.984C63.4613 50.6907 59.8347 51.544 55.824 51.544H25.744ZM25.744 43.096V39.256H55.824C58.384 39.256 60.56 38.5307 62.352 37.08C64.2293 35.544 65.168 33.1973 65.168 30.04C65.168 26.7973 64.2293 24.4507 62.352 23C60.56 21.5493 58.384 20.824 55.824 20.824H25.744V16.984H55.824C59.4933 16.984 62.608 18.0933 65.168 20.312C67.728 22.5307 69.008 25.7733 69.008 30.04C69.008 34.3067 67.728 37.5493 65.168 39.768C62.608 41.9867 59.4933 43.096 55.824 43.096H25.744ZM25.36 103V99.16H56.464C62.6933 99.16 68.0267 97.9653 72.464 95.576C76.9867 93.1013 80.4427 89.7733 82.832 85.592C85.3067 81.3253 86.544 76.504 86.544 71.128C86.544 67.8 86.1173 64.6427 85.264 61.656C84.496 58.584 83.2587 55.896 81.552 53.592C82.064 53.1653 82.5333 52.7387 82.96 52.312C83.472 51.8 83.8987 51.2453 84.24 50.648C88.336 56.024 90.384 62.8507 90.384 71.128C90.384 77.1867 88.976 82.648 86.16 87.512C83.4293 92.2907 79.504 96.088 74.384 98.904C69.3493 101.635 63.376 103 56.464 103H25.36ZM25.36 94.552V90.712H56.464C63.5467 90.712 68.9227 88.8773 72.592 85.208C76.2613 81.5387 78.096 76.8453 78.096 71.128C78.096 68.9093 77.84 66.776 77.328 64.728C76.816 62.5947 76.0907 60.7173 75.152 59.096C75.8347 58.7547 76.432 58.3707 76.944 57.944C77.456 57.5173 77.8827 57.1333 78.224 56.792C79.4187 58.6693 80.3147 60.8453 80.912 63.32C81.5947 65.7947 81.936 68.3973 81.936 71.128C81.936 77.8693 79.7173 83.4587 75.28 87.896C70.8427 92.3333 64.5707 94.552 56.464 94.552H25.36ZM25.36 86.104V82.264H56.464C61.1573 82.264 64.528 81.24 66.576 79.192C68.624 77.144 69.648 74.456 69.648 71.128C69.648 67.9707 68.8373 65.24 67.216 62.936C67.8133 62.7653 68.4107 62.552 69.008 62.296C69.6053 61.9547 70.2027 61.6133 70.8 61.272C72.592 64.1733 73.488 67.4587 73.488 71.128C73.488 75.5653 72.08 79.192 69.264 82.008C66.5333 84.7387 62.2667 86.104 56.464 86.104H25.36ZM103.365 103L122.053 51.544H126.149L144.837 103H140.741L124.101 57.176L121.669 63.832L135.877 103H131.781L129.605 96.856H109.637L107.461 103H103.365ZM94.405 103L113.093 51.544H117.189L98.501 103H94.405ZM114.117 84.568H125.125L119.621 69.464L114.117 84.568ZM111.045 93.016H128.197L126.533 88.408H112.709L111.045 93.016ZM151.245 103V51.544H155.085V103H151.245ZM193.997 103V51.544H197.837V103H193.997ZM185.549 88.664L163.533 58.072V65.88L185.549 96.472V88.664ZM159.693 103V51.544H163.533L185.549 82.136V51.544H189.389V103H185.549L163.533 72.408V103H159.693ZM216.568 103V51.544H247.16V55.384H220.408V59.992H247.16V63.832H220.408V71.128H243.064V74.968H220.408V79.576H243.064V83.416H220.408V90.712H247.16V94.552H220.408V99.16H247.16V103H216.568ZM208.12 103V51.544H211.96V103H208.12ZM263.068 103V51.544H266.908V90.712H289.82V94.552H266.908V99.16H289.82V103H263.068ZM254.62 103V51.544H258.46V103H254.62ZM305.318 103V51.544H335.91V55.384H309.158V59.992H335.91V63.832H309.158V71.128H331.814V74.968H309.158V79.576H331.814V83.416H309.158V90.712H335.91V94.552H309.158V99.16H335.91V103H305.318ZM296.87 103V51.544H300.71V103H296.87ZM361.742 103L425.614 0.0879974H430.094L366.222 103H361.742ZM342.03 103L405.902 0.0879974H410.382L346.51 103H342.03ZM351.886 103L415.758 0.0879974H420.238L356.366 103H351.886ZM351.246 3.92799V0.0879974H400.526L398.222 3.92799H351.246ZM351.246 12.376V8.536H395.406L392.974 12.376H351.246ZM351.246 20.824V16.984H390.158L387.726 20.824H351.246ZM381.326 86.104L383.758 82.264H420.878V86.104H381.326ZM376.078 94.552L378.51 90.712H420.878V94.552H376.078ZM370.958 103L373.262 99.16H420.878V103H370.958ZM433.995 83.8V51.544H437.835V83.672C437.835 89.1333 439.456 93.3147 442.699 96.216C446.027 99.032 449.952 100.44 454.475 100.44C458.998 100.44 462.88 99.032 466.123 96.216C469.451 93.3147 471.115 89.1333 471.115 83.672V51.544H474.955V83.8C474.87 88.152 473.888 91.864 472.011 94.936C470.219 97.9227 467.787 100.227 464.715 101.848C461.643 103.469 458.23 104.28 454.475 104.28C450.72 104.28 447.264 103.469 444.107 101.848C441.035 100.227 438.56 97.88 436.683 94.808C434.891 91.736 433.995 88.0667 433.995 83.8ZM442.443 83.8V51.544H446.283V83.672C446.283 86.5733 447.094 88.7067 448.715 90.072C450.336 91.352 452.256 91.992 454.475 91.992C456.694 91.992 458.614 91.352 460.235 90.072C461.856 88.7067 462.667 86.5733 462.667 83.672V51.544H466.507V83.8C466.422 87.8107 465.184 90.84 462.795 92.888C460.491 94.8507 457.718 95.832 454.475 95.832C451.232 95.832 448.416 94.808 446.027 92.76C443.638 90.712 442.443 87.7253 442.443 83.8ZM493.693 103V51.544H497.533V90.712H520.445V94.552H497.533V99.16H520.445V103H493.693ZM485.245 103V51.544H489.085V103H485.245ZM526.245 83.8V51.544H530.085V83.672C530.085 89.1333 531.706 93.3147 534.949 96.216C538.277 99.032 542.202 100.44 546.725 100.44C551.248 100.44 555.13 99.032 558.373 96.216C561.701 93.3147 563.365 89.1333 563.365 83.672V51.544H567.205V83.8C567.12 88.152 566.138 91.864 564.261 94.936C562.469 97.9227 560.037 100.227 556.965 101.848C553.893 103.469 550.48 104.28 546.725 104.28C542.97 104.28 539.514 103.469 536.357 101.848C533.285 100.227 530.81 97.88 528.933 94.808C527.141 91.736 526.245 88.0667 526.245 83.8ZM534.693 83.8V51.544H538.533V83.672C538.533 86.5733 539.344 88.7067 540.965 90.072C542.586 91.352 544.506 91.992 546.725 91.992C548.944 91.992 550.864 91.352 552.485 90.072C554.106 88.7067 554.917 86.5733 554.917 83.672V51.544H558.757V83.8C558.672 87.8107 557.434 90.84 555.045 92.888C552.741 94.8507 549.968 95.832 546.725 95.832C543.482 95.832 540.666 94.808 538.277 92.76C535.888 90.712 534.693 87.7253 534.693 83.8Z" fill="black"/>
</svg>
