<svg width="742" height="86" viewBox="0 0 742 86" fill="none" xmlns="http://www.w3.org/2000/svg">
<path d="M28.375 86C22.75 86 17.875 84.9375 13.75 82.8125C9.625 80.6458 6.41667 77.75 4.125 74.125C1.875 70.5 0.75 66.5208 0.75 62.1875V24.1875C0.75 19.8125 1.875 15.8333 4.125 12.25C6.41667 8.625 9.625 5.75 13.75 3.625C17.875 1.45833 22.75 0.375 28.375 0.375H47.625C53.25 0.375 58.125 1.45833 62.25 3.625C66.4167 5.75 69.625 8.625 71.875 12.25C74.125 15.8333 75.25 19.8125 75.25 24.1875V62.1875C75.25 66.5208 74.125 70.5 71.875 74.125C69.625 77.75 66.4167 80.6458 62.25 82.8125C58.125 84.9375 53.25 86 47.625 86H28.375ZM20.1875 57.6875H46.4375L52.875 56.9375L56.8125 53L57.6875 47.75V37.875L56.5 33.25L51.5 31.0625L56.5 29.1875L57.6875 24.4375V16.125L56.8125 10.875L52.875 6.875L46.4375 6H20.1875V57.6875ZM26.875 28V12.625H46.0625L50.4375 13.3125L50.1875 17L51.0625 23.9375L50.1875 27.25L46.0625 28H26.875ZM26.875 51.0625V34.5625H46.1875L50.4375 35.0625L51.0625 38.75V47.0625L50.1875 50.4375L46.0625 51.0625H26.875ZM102.375 86C96.75 86 91.875 84.9375 87.75 82.8125C83.625 80.6458 80.4167 77.75 78.125 74.125C75.875 70.5 74.75 66.5208 74.75 62.1875V24.1875C74.75 19.8125 75.875 15.8333 78.125 12.25C80.4167 8.625 83.625 5.75 87.75 3.625C91.875 1.45833 96.75 0.375 102.375 0.375H121.625C127.25 0.375 132.125 1.45833 136.25 3.625C140.417 5.75 143.625 8.625 145.875 12.25C148.125 15.8333 149.25 19.8125 149.25 24.1875V62.1875C149.25 66.5208 148.125 70.5 145.875 74.125C143.625 77.75 140.417 80.6458 136.25 82.8125C132.125 84.9375 127.25 86 121.625 86H102.375ZM104.562 57.6875H118.25L123.125 56.9375L129.312 57.625V10.75L125.062 6.75L118.812 6H104.562L97.25 6.875L98.8125 13.6875L104.688 12.5H118.625L122.375 13.3125L123.25 16.625V31.1875L118.812 30.4375H104.562L98.3125 31.375L94.3125 35.3125L93.4375 40.4375V47.75L94.3125 53L98.3125 56.9375L104.562 57.6875ZM104.938 51.0625L101 50.4375L100.125 46.6875V41.3125L100.625 37.75L104.938 37.125H118.5L123.25 37.625V50.4375L118.375 51.0625H104.938ZM176.375 86C170.75 86 165.875 84.9375 161.75 82.8125C157.625 80.6458 154.417 77.75 152.125 74.125C149.875 70.5 148.75 66.5208 148.75 62.1875V24.1875C148.75 19.8125 149.875 15.8333 152.125 12.25C154.417 8.625 157.625 5.75 161.75 3.625C165.875 1.45833 170.75 0.375 176.375 0.375H195.625C201.25 0.375 206.125 1.45833 210.25 3.625C214.417 5.75 217.625 8.625 219.875 12.25C222.125 15.8333 223.25 19.8125 223.25 24.1875V62.1875C223.25 66.5208 222.125 70.5 219.875 74.125C217.625 77.75 214.417 80.6458 210.25 82.8125C206.125 84.9375 201.25 86 195.625 86H176.375ZM169.125 57.6875H175.75V13.3125L180.625 12.5H195.625L199.938 13.1875L200.562 16.875V57.6875H207.25V16L206.375 10.75L202.375 6.75L196 6H180.375L169.125 7.5625V57.6875ZM250.375 86C244.75 86 239.875 84.9375 235.75 82.8125C231.625 80.6458 228.417 77.75 226.125 74.125C223.875 70.5 222.75 66.5208 222.75 62.1875V24.1875C222.75 19.8125 223.875 15.8333 226.125 12.25C228.417 8.625 231.625 5.75 235.75 3.625C239.875 1.45833 244.75 0.375 250.375 0.375H269.625C275.25 0.375 280.125 1.45833 284.25 3.625C288.417 5.75 291.625 8.625 293.875 12.25C296.125 15.8333 297.25 19.8125 297.25 24.1875V62.1875C297.25 66.5208 296.125 70.5 293.875 74.125C291.625 77.75 288.417 80.6458 284.25 82.8125C280.125 84.9375 275.25 86 269.625 86H250.375ZM253.062 55.6875H268.812L276.125 54.75L274.562 48L268.688 49H253.5L249.5 48.375L248.625 44.625V31.75H277.812V16L276.875 10.75L272.938 6.75L266.625 6H253.062L246.812 6.75L242.875 10.75L241.938 16V45.6875L242.875 50.9375L246.812 54.875L253.062 55.6875ZM248.625 25.1875V16.75L249.125 13.1875L253.5 12.5H266.25L270.5 13.1875L271.125 16.875V25.1875H248.625ZM324.375 86C318.75 86 313.875 84.9375 309.75 82.8125C305.625 80.6458 302.417 77.75 300.125 74.125C297.875 70.5 296.75 66.5208 296.75 62.1875V24.1875C296.75 19.8125 297.875 15.8333 300.125 12.25C302.417 8.625 305.625 5.75 309.75 3.625C313.875 1.45833 318.75 0.375 324.375 0.375H343.625C349.25 0.375 354.125 1.45833 358.25 3.625C362.417 5.75 365.625 8.625 367.875 12.25C370.125 15.8333 371.25 19.8125 371.25 24.1875V62.1875C371.25 66.5208 370.125 70.5 367.875 74.125C365.625 77.75 362.417 80.6458 358.25 82.8125C354.125 84.9375 349.25 86 343.625 86H324.375ZM325.062 57.6875H350.875V51.0625H331.688V6H325.062V57.6875ZM398.375 86C392.75 86 387.875 84.9375 383.75 82.8125C379.625 80.6458 376.417 77.75 374.125 74.125C371.875 70.5 370.75 66.5208 370.75 62.1875V24.1875C370.75 19.8125 371.875 15.8333 374.125 12.25C376.417 8.625 379.625 5.75 383.75 3.625C387.875 1.45833 392.75 0.375 398.375 0.375H417.625C423.25 0.375 428.125 1.45833 432.25 3.625C436.417 5.75 439.625 8.625 441.875 12.25C444.125 15.8333 445.25 19.8125 445.25 24.1875V62.1875C445.25 66.5208 444.125 70.5 441.875 74.125C439.625 77.75 436.417 80.6458 432.25 82.8125C428.125 84.9375 423.25 86 417.625 86H398.375ZM401.062 55.6875H416.812L424.125 54.75L422.562 48L416.688 49H401.5L397.5 48.375L396.625 44.625V31.75H425.812V16L424.875 10.75L420.938 6.75L414.625 6H401.062L394.812 6.75L390.875 10.75L389.938 16V45.6875L390.875 50.9375L394.812 54.875L401.062 55.6875ZM396.625 25.1875V16.75L397.125 13.1875L401.5 12.5H414.25L418.5 13.1875L419.125 16.875V25.1875H396.625ZM472.375 86C466.75 86 461.875 84.9375 457.75 82.8125C453.625 80.6458 450.417 77.75 448.125 74.125C445.875 70.5 444.75 66.5208 444.75 62.1875V24.1875C444.75 19.8125 445.875 15.8333 448.125 12.25C450.417 8.625 453.625 5.75 457.75 3.625C461.875 1.45833 466.75 0.375 472.375 0.375H491.625C497.25 0.375 502.125 1.45833 506.25 3.625C510.417 5.75 513.625 8.625 515.875 12.25C518.125 15.8333 519.25 19.8125 519.25 24.1875V62.1875C519.25 66.5208 518.125 70.5 515.875 74.125C513.625 77.75 510.417 80.6458 506.25 82.8125C502.125 84.9375 497.25 86 491.625 86H472.375ZM470.625 57.6875H500.312V51.1875H476.75L498.875 11.5L496.312 6H469.562V12.625H490.688L468.562 52.3125L470.625 57.6875ZM546.375 86C540.75 86 535.875 84.9375 531.75 82.8125C527.625 80.6458 524.417 77.75 522.125 74.125C519.875 70.5 518.75 66.5208 518.75 62.1875V24.1875C518.75 19.8125 519.875 15.8333 522.125 12.25C524.417 8.625 527.625 5.75 531.75 3.625C535.875 1.45833 540.75 0.375 546.375 0.375H565.625C571.25 0.375 576.125 1.45833 580.25 3.625C584.417 5.75 587.625 8.625 589.875 12.25C592.125 15.8333 593.25 19.8125 593.25 24.1875V62.1875C593.25 66.5208 592.125 70.5 589.875 74.125C587.625 77.75 584.417 80.6458 580.25 82.8125C576.125 84.9375 571.25 86 565.625 86H546.375ZM550.125 57.6875H566.875L573.25 56.9375L577.25 53L578.125 47.625V6H571.5V46.9375L570.562 50.4375L566.5 51.0625H550.5L546.375 50.4375L545.5 46.6875V6H539V47.625L539.75 53L543.812 56.9375L550.125 57.6875ZM620.375 86C614.75 86 609.875 84.9375 605.75 82.8125C601.625 80.6458 598.417 77.75 596.125 74.125C593.875 70.5 592.75 66.5208 592.75 62.1875V24.1875C592.75 19.8125 593.875 15.8333 596.125 12.25C598.417 8.625 601.625 5.75 605.75 3.625C609.875 1.45833 614.75 0.375 620.375 0.375H639.625C645.25 0.375 650.125 1.45833 654.25 3.625C658.417 5.75 661.625 8.625 663.875 12.25C666.125 15.8333 667.25 19.8125 667.25 24.1875V62.1875C667.25 66.5208 666.125 70.5 663.875 74.125C661.625 77.75 658.417 80.6458 654.25 82.8125C650.125 84.9375 645.25 86 639.625 86H620.375ZM621.062 57.6875H646.875V51.0625H627.688V6H621.062V57.6875ZM694.375 86C688.75 86 683.875 84.9375 679.75 82.8125C675.625 80.6458 672.417 77.75 670.125 74.125C667.875 70.5 666.75 66.5208 666.75 62.1875V24.1875C666.75 19.8125 667.875 15.8333 670.125 12.25C672.417 8.625 675.625 5.75 679.75 3.625C683.875 1.45833 688.75 0.375 694.375 0.375H713.625C719.25 0.375 724.125 1.45833 728.25 3.625C732.417 5.75 735.625 8.625 737.875 12.25C740.125 15.8333 741.25 19.8125 741.25 24.1875V62.1875C741.25 66.5208 740.125 70.5 737.875 74.125C735.625 77.75 732.417 80.6458 728.25 82.8125C724.125 84.9375 719.25 86 713.625 86H694.375ZM698.125 57.6875H714.875L721.25 56.9375L725.25 53L726.125 47.625V6H719.5V46.9375L718.562 50.4375L714.5 51.0625H698.5L694.375 50.4375L693.5 46.6875V6H687V47.625L687.75 53L691.812 56.9375L698.125 57.6875Z" fill="black"/>
</svg>
