<svg width="415" height="119" viewBox="0 0 415 119" fill="none" xmlns="http://www.w3.org/2000/svg">
<path d="M3.192 87C3.14933 83.16 3.128 79.3413 3.128 75.544C3.17067 71.704 3.192 67.864 3.192 64.024C3.192 60.1413 3.21333 56.28 3.256 52.44C3.34133 48.6 3.40533 44.76 3.448 40.92C3.53333 37.08 3.66133 33.24 3.832 29.4C3.91733 27.0533 4.32267 25.2187 5.048 23.896C5.816 22.5307 6.88267 21.5493 8.248 20.952C9.656 20.312 11.3627 19.928 13.368 19.8C15.416 19.6293 17.8053 19.544 20.536 19.544C26.3813 19.544 31.6933 19.9067 36.472 20.632C41.2507 21.3573 45.048 22.8293 47.864 25.048C50.7227 27.224 52.152 30.5093 52.152 34.904C52.152 38.4027 51.6187 41.112 50.552 43.032C49.4853 44.9093 48.2693 46.296 46.904 47.192C45.5387 48.0453 44.344 48.6853 43.32 49.112C42.296 49.5387 41.784 50.0507 41.784 50.648C41.784 51.0747 41.912 51.3947 42.168 51.608C42.424 51.7787 42.8293 51.928 43.384 52.056C47.1387 52.9093 50.5947 54.232 53.752 56.024C56.952 57.816 59.512 60.3333 61.432 63.576C63.352 66.776 64.312 70.9573 64.312 76.12C64.312 82.264 62.7973 87.4693 59.768 91.736C56.7813 95.96 52.5787 99.16 47.16 101.336C41.7413 103.469 35.4267 104.536 28.216 104.536C21.6453 104.536 16.568 103.896 12.984 102.616C9.4 101.336 6.88267 99.3947 5.432 96.792C3.98133 94.1893 3.23467 90.9253 3.192 87ZM22.776 28.12C20.6853 28.12 19 28.2907 17.72 28.632C16.4827 28.9307 15.5867 29.464 15.032 30.232C14.4773 31 14.2 32.088 14.2 33.496C14.2 35.672 14.392 37.784 14.776 39.832C15.2027 41.8373 15.928 43.5013 16.952 44.824C17.976 46.1467 19.384 46.808 21.176 46.808C23.48 46.808 25.8693 46.5947 28.344 46.168C30.8187 45.6987 33.1013 45.016 35.192 44.12C37.2827 43.1813 38.9893 42.0507 40.312 40.728C41.6347 39.4053 42.296 37.8907 42.296 36.184C42.296 33.752 41.6987 31.9813 40.504 30.872C39.3093 29.72 37.2827 28.9733 34.424 28.632C31.608 28.2907 27.7253 28.12 22.776 28.12ZM13.56 79.832C13.56 84.312 13.752 87.7467 14.136 90.136C14.5627 92.4827 15.6507 94.104 17.4 95C19.1493 95.896 22.0293 96.344 26.04 96.344C27.96 96.344 29.6667 96.216 31.16 95.96C32.696 95.704 33.9973 95.3413 35.064 94.872C36.1733 94.4027 37.0693 93.784 37.752 93.016C38.4773 92.248 39.0107 91.3307 39.352 90.264C39.6933 89.1547 39.864 87.9173 39.864 86.552C39.864 83.7787 39.5013 80.8987 38.776 77.912C38.0507 74.8827 36.9627 72.088 35.512 69.528C34.104 66.9253 32.376 64.8347 30.328 63.256C28.28 61.6347 25.9973 60.824 23.48 60.824C20.6213 60.824 18.4667 61.6133 17.016 63.192C15.608 64.7707 14.6693 66.9893 14.2 69.848C13.7733 72.7067 13.56 76.0347 13.56 79.832ZM42.616 65.24C43.8533 65.24 44.856 64.8987 45.624 64.216C46.392 63.4907 46.776 62.5947 46.776 61.528C46.776 60.0347 46.3493 58.9253 45.496 58.2C44.6427 57.432 43.5973 57.048 42.36 57.048C41.1653 57.048 40.2267 57.4107 39.544 58.136C38.8613 58.8187 38.52 59.9493 38.52 61.528C38.52 62.552 38.904 63.4267 39.672 64.152C40.4827 64.8773 41.464 65.24 42.616 65.24ZM52.28 77.656C54.072 77.656 55.352 77.1653 56.12 76.184C56.9307 75.2027 57.336 73.816 57.336 72.024C57.336 70.6587 56.9093 69.5707 56.056 68.76C55.2027 67.9493 54.0293 67.544 52.536 67.544C50.6587 67.544 49.2507 67.9707 48.312 68.824C47.3733 69.6347 46.904 70.9147 46.904 72.664C46.904 74.2 47.3307 75.416 48.184 76.312C49.0373 77.208 50.4027 77.656 52.28 77.656ZM49.976 91.096C51.4267 91.096 52.5573 90.7547 53.368 90.072C54.1787 89.3467 54.584 88.1947 54.584 86.616C54.584 85.72 54.2213 84.888 53.496 84.12C52.8133 83.3093 51.704 82.904 50.168 82.904C49.144 82.904 48.2693 83.2667 47.544 83.992C46.8187 84.6747 46.456 85.6347 46.456 86.872C46.456 88.152 46.8187 89.176 47.544 89.944C48.2693 90.712 49.08 91.096 49.976 91.096ZM15.672 22.104L7.8 25.176C5.112 20.44 3.21333 16.4933 2.104 13.336C0.994667 10.1787 0.674667 7.832 1.144 6.296C1.61333 4.71733 2.91467 3.92799 5.048 3.92799C6.11467 3.92799 7.11733 4.46133 8.056 5.52799C9.03733 6.59466 10.104 8.472 11.256 11.16C12.4507 13.8053 13.9227 17.4533 15.672 22.104ZM21.368 25.688L14.136 24.792C14.0933 23.9387 14.2 23.2133 14.456 22.616C14.712 22.0187 15.096 21.528 15.608 21.144C16.12 20.76 16.8027 20.568 17.656 20.568C18.6373 20.568 19.4267 20.8027 20.024 21.272C20.6213 21.6987 21.0267 22.296 21.24 23.064C21.496 23.7893 21.5387 24.664 21.368 25.688ZM29.688 21.848L20.856 22.488C20.3013 16.0027 20.0667 11.1813 20.152 8.02399C20.2373 4.824 20.664 2.73333 21.432 1.752C22.2 0.727997 23.288 0.215996 24.696 0.215996C26.0613 0.215996 27.1067 0.663996 27.832 1.56C28.5573 2.45599 29.048 4.20533 29.304 6.808C29.6027 9.41066 29.7307 13.2507 29.688 18.328C29.688 18.8827 29.688 19.4587 29.688 20.056C29.7307 20.6107 29.7307 21.208 29.688 21.848ZM42.616 24.792L35 23C36.3653 18.136 37.5387 14.232 38.52 11.288C39.5013 8.34399 40.44 6.23199 41.336 4.952C42.232 3.672 43.2347 3.032 44.344 3.032C47.1173 3.032 48.696 3.928 49.08 5.71999C49.5067 7.46933 49.08 9.98666 47.8 13.272C46.5627 16.5147 44.8347 20.3547 42.616 24.792ZM55.736 30.552C54.7547 30.9787 53.7307 31.448 52.664 31.96C51.5973 32.4293 50.488 32.856 49.336 33.24C48.184 33.6667 47.16 33.7307 46.264 33.432C45.368 33.1333 44.6853 32.3867 44.216 31.192C43.6613 29.9547 43.6613 28.8667 44.216 27.928C44.7707 26.9893 45.4747 26.2427 46.328 25.688C46.8827 25.3467 47.5013 24.9627 48.184 24.536C48.9093 24.1093 49.6133 23.6827 50.296 23.256C51.96 22.4027 53.56 21.6347 55.096 20.952C56.632 20.2693 58.04 20.0133 59.32 20.184C60.6427 20.312 61.688 21.1227 62.456 22.616C62.968 23.768 62.9253 24.8133 62.328 25.752C61.7733 26.6907 60.8987 27.5653 59.704 28.376C58.552 29.144 57.2293 29.8693 55.736 30.552ZM46.136 44.504L49.656 37.464C53.112 38.8293 55.736 39.9813 57.528 40.92C59.3627 41.8587 60.6 42.6693 61.24 43.352C61.88 44.0347 62.2 44.7813 62.2 45.592C62.2 47.8107 61.5173 49.112 60.152 49.496C58.7867 49.8373 56.888 49.5387 54.456 48.6C52.024 47.6187 49.2507 46.2533 46.136 44.504ZM26.488 90.84C24.9093 94.296 23.1813 97.9867 21.304 101.912C19.4267 105.795 17.8693 108.931 16.632 111.32C14.7973 114.776 13.2827 116.867 12.088 117.592C10.936 118.36 9.61333 118.531 8.12 118.104C6.54133 117.507 5.53867 116.333 5.112 114.584C4.68533 112.835 5.51733 110.211 7.608 106.712C8.76 104.621 10.0613 102.317 11.512 99.8C13.0053 97.2827 14.4987 94.744 15.992 92.184C17.4853 89.624 18.872 87.2133 20.152 84.952C21.688 82.4773 23.0533 81.0267 24.248 80.6C25.4853 80.1733 26.552 80.2587 27.448 80.856C28.7707 81.624 29.2187 82.8827 28.792 84.632C28.3653 86.3813 27.5973 88.4507 26.488 90.84ZM72.279 91.096C73.0897 87.9387 74.1137 84.0133 75.351 79.32C76.5883 74.584 77.9323 69.5493 79.383 64.216C80.8337 58.84 82.263 53.656 83.671 48.664C86.1883 49.688 88.4923 50.4773 90.583 51.032C92.7163 51.544 94.423 51.608 95.703 51.224C96.983 50.84 97.623 49.7947 97.623 48.088C97.623 46.936 96.791 45.8267 95.127 44.76C93.5057 43.6933 90.3483 42.584 85.655 41.432C86.039 39.9387 86.423 38.5307 86.807 37.208C87.191 35.8427 87.5537 34.5627 87.895 33.368C90.839 34.6053 93.6337 35.608 96.279 36.376C98.9243 37.144 101.079 37.3787 102.743 37.08C104.407 36.7813 105.239 35.672 105.239 33.752C105.239 32.344 104.172 31.064 102.039 29.912C99.9057 28.76 95.895 27.5227 90.007 26.2C90.0497 26.0293 90.071 25.9013 90.071 25.816C90.1137 25.688 90.1563 25.5387 90.199 25.368C91.3083 21.656 93.335 18.776 96.279 16.728C99.2657 14.68 103.34 13.6987 108.503 13.784C113.794 13.784 117.932 14.9573 120.919 17.304C123.906 19.608 125.783 23.2987 126.551 28.376C126.636 29.016 126.722 29.6987 126.807 30.424C126.935 31.1067 127.042 31.832 127.127 32.6C127.212 33.2827 127.298 33.9867 127.383 34.712C127.511 35.4373 127.618 36.184 127.703 36.952C127.788 37.3787 127.852 37.8053 127.895 38.232C127.98 38.6587 128.044 39.0853 128.087 39.512C128.172 39.9387 128.236 40.3867 128.279 40.856C128.407 41.8373 128.535 42.84 128.663 43.864C128.791 44.888 128.94 45.9333 129.111 47C129.196 47.64 129.282 48.3013 129.367 48.984C129.495 49.624 129.58 50.3067 129.623 51.032C129.708 51.544 129.772 52.0773 129.815 52.632C129.9 53.144 129.986 53.6773 130.071 54.232C130.156 54.744 130.22 55.2773 130.263 55.832C130.775 59.544 131.266 63.32 131.735 67.16C132.247 71 132.738 74.776 133.207 78.488C133.676 82.2 134.103 85.72 134.487 89.048C134.914 92.376 135.298 95.4053 135.639 98.136C135.938 100.483 135.575 102.445 134.551 104.024C133.527 105.645 132.055 106.456 130.135 106.456C128.471 106.456 127.042 105.816 125.847 104.536C124.695 103.299 123.991 101.464 123.735 99.032C122.924 91.352 122.199 83.3733 121.559 75.096C120.919 66.776 120.215 58.3707 119.447 49.88C119.191 46.936 118.658 44.888 117.847 43.736C117.036 42.584 115.692 42.008 113.815 42.008C112.108 42.008 110.487 42.52 108.951 43.544C107.458 44.568 105.772 46.9787 103.895 50.776C100.268 58.1147 96.663 65.624 93.079 73.304C89.5377 80.984 86.0603 88.3653 82.647 95.448C81.7937 97.1973 80.855 98.4773 79.831 99.288C78.807 100.056 77.655 100.44 76.375 100.44C74.5403 100.44 73.2177 99.5653 72.407 97.816C71.639 96.0667 71.5963 93.8267 72.279 91.096ZM87.127 80.6L89.559 71.512C95.0203 71.2987 100.46 71.0853 105.879 70.872C111.298 70.6587 116.439 70.488 121.303 70.36C123.351 70.2747 125.036 70.5947 126.359 71.32C127.682 72.0027 128.343 73.1333 128.343 74.712C128.343 76.4187 127.874 77.656 126.935 78.424C126.039 79.192 124.716 79.6187 122.967 79.704C116.994 79.96 111.084 80.152 105.239 80.28C99.3937 80.408 93.3563 80.5147 87.127 80.6ZM130.263 92.632C129.111 92.632 128.087 92.2693 127.191 91.544C126.338 90.8187 125.911 89.816 125.911 88.536C125.911 87.256 126.295 86.2747 127.063 85.592C127.874 84.9093 128.94 84.568 130.263 84.568C130.519 84.568 130.882 84.568 131.351 84.568C131.82 84.568 132.268 84.568 132.695 84.568V92.632C132.311 92.6747 131.906 92.696 131.479 92.696C131.052 92.6533 130.647 92.632 130.263 92.632ZM80.407 75.288C76.567 74.1787 73.6017 73.1973 71.511 72.344C69.4203 71.4907 67.9697 70.6587 67.159 69.848C66.3057 68.9947 65.879 68.0347 65.879 66.968C65.879 64.92 66.711 63.704 68.375 63.32C69.9963 62.936 72.1297 63.1067 74.775 63.832C77.4203 64.5573 80.1937 65.5813 83.095 66.904L80.407 75.288ZM84.055 82.776C82.9883 82.4347 82.071 82.072 81.303 81.688C80.5777 81.304 80.023 80.856 79.639 80.344C79.255 79.832 79.063 79.192 79.063 78.424C79.063 76.8027 79.3617 75.5227 79.959 74.584C80.5563 73.6453 81.4097 73.0693 82.519 72.856C83.671 72.6427 85.079 72.8347 86.743 73.432L84.055 82.776ZM124.247 65.496L123.351 56.664C124.887 56.4933 126.146 56.4933 127.127 56.664C128.108 56.8347 128.834 57.304 129.303 58.072C129.772 58.7973 130.007 59.9493 130.007 61.528C130.007 63.064 129.516 64.0453 128.535 64.472C127.554 64.8987 126.124 65.24 124.247 65.496ZM128.791 79.32L128.343 69.976C131.927 69.848 134.743 69.8053 136.791 69.848C138.882 69.8907 140.354 70.2747 141.207 71C142.103 71.6827 142.551 72.984 142.551 74.904C142.551 76.6533 141.612 77.8267 139.735 78.424C137.9 78.9787 134.252 79.2773 128.791 79.32ZM147.406 93.912C147.449 90.84 147.534 87.2133 147.662 83.032C147.833 78.808 148.025 74.3493 148.238 69.656C148.451 64.92 148.686 60.248 148.942 55.64C148.942 54.9147 148.963 54.232 149.006 53.592C149.091 52.9093 149.134 52.2267 149.134 51.544C149.219 50.8187 149.262 50.136 149.262 49.496C149.262 48.8133 149.283 48.1307 149.326 47.448C149.411 46.168 149.475 44.952 149.518 43.8C149.603 42.6053 149.667 41.432 149.71 40.28C154.702 40.152 158.478 39.8747 161.038 39.448C163.641 39.0213 165.39 38.4027 166.286 37.592C167.182 36.7813 167.587 35.7147 167.502 34.392C167.374 32.6427 166.115 31.576 163.726 31.192C161.379 30.808 156.878 30.9787 150.222 31.704C150.307 30.7227 150.371 29.784 150.414 28.888C150.499 27.9493 150.563 27.0107 150.606 26.072C151.075 20.7387 152.398 16.9627 154.574 14.744C156.793 12.4827 159.801 11.352 163.598 11.352C167.182 11.352 170.083 12.2907 172.302 14.168C174.563 16.0027 176.846 19.16 179.15 23.64C180.814 26.84 182.627 30.8507 184.59 35.672C186.553 40.4933 188.579 45.6773 190.67 51.224C192.803 56.728 194.915 62.1893 197.006 67.608C199.097 72.984 201.081 77.8267 202.958 82.136C203.427 83.2453 204.067 83.928 204.878 84.184C205.731 84.3973 206.478 84.2267 207.118 83.672C207.801 83.1173 208.121 82.2213 208.078 80.984C207.907 74.456 207.715 67.4587 207.502 59.992C207.289 52.4827 207.097 45.1227 206.926 37.912C206.798 30.6587 206.67 24.152 206.542 18.392C206.457 15.6187 206.798 13.5067 207.566 12.056C208.334 10.5627 209.87 9.81599 212.174 9.81599C214.563 9.81599 216.099 10.5627 216.782 12.056C217.465 13.5067 217.806 15.5333 217.806 18.136C217.806 24.4933 217.806 31.5547 217.806 39.32C217.806 47.0427 217.763 54.936 217.678 63C217.635 71.064 217.507 78.7653 217.294 86.104C217.166 90.3707 215.971 93.3787 213.71 95.128C211.491 96.8773 209.059 97.752 206.414 97.752C204.622 97.752 202.787 97.3893 200.91 96.664C199.033 95.9387 197.113 94.552 195.15 92.504C191.523 88.536 188.003 84.2907 184.59 79.768C181.177 75.2027 177.87 70.7227 174.67 66.328C171.513 61.8907 168.419 57.9013 165.39 54.36C164.665 53.5067 164.11 52.952 163.726 52.696C163.385 52.44 162.979 52.312 162.51 52.312C161.443 52.312 160.633 52.696 160.078 53.464C159.566 54.232 159.31 55.256 159.31 56.536C159.31 60.632 159.417 64.7493 159.63 68.888C159.886 73.0267 160.099 77.1867 160.27 81.368C160.483 85.5493 160.59 89.7307 160.59 93.912C160.59 96.9413 160.099 99.288 159.118 100.952C158.137 102.573 156.366 103.384 153.806 103.384C151.203 103.384 149.475 102.467 148.622 100.632C147.769 98.7547 147.363 96.5147 147.406 93.912ZM207.438 21.592C208.035 21.6347 208.59 21.6987 209.102 21.784C209.657 21.8267 210.211 21.8907 210.766 21.976C211.534 22.104 212.174 22.36 212.686 22.744C213.241 23.128 213.646 23.64 213.902 24.28C214.201 24.8773 214.35 25.56 214.35 26.328C214.35 27.0533 214.222 27.7147 213.966 28.312C213.71 28.8667 213.283 29.336 212.686 29.72C212.131 30.0613 211.363 30.2533 210.382 30.296C209.87 30.296 209.358 30.296 208.846 30.296C208.334 30.296 207.822 30.296 207.31 30.296C203.214 30.1253 200.121 29.848 198.03 29.464C195.939 29.08 194.531 28.5467 193.806 27.864C193.081 27.1813 192.718 26.2853 192.718 25.176C192.718 23.9387 193.081 23 193.806 22.36C194.574 21.6773 196.003 21.272 198.094 21.144C200.227 20.9733 203.342 21.1227 207.438 21.592ZM211.662 31.32C211.918 31.32 212.174 31.32 212.43 31.32C212.686 31.32 212.942 31.32 213.198 31.32C213.795 31.32 214.499 31.7253 215.31 32.536C216.121 33.304 216.526 34.3493 216.526 35.672C216.526 36.952 216.163 37.9547 215.438 38.68C214.755 39.4053 214.115 39.768 213.518 39.768C213.134 39.768 212.814 39.768 212.558 39.768C212.345 39.768 212.025 39.768 211.598 39.768C210.574 39.768 209.806 39.4053 209.294 38.68C208.825 37.912 208.59 36.824 208.59 35.416C208.59 33.9227 208.867 32.8773 209.422 32.28C209.977 31.64 210.723 31.32 211.662 31.32ZM214.478 39.64C215.075 39.5547 215.566 39.4907 215.95 39.448C216.377 39.4053 216.782 39.384 217.166 39.384C220.451 39.128 222.883 39.128 224.462 39.384C226.041 39.64 227.065 40.1093 227.534 40.792C228.003 41.4747 228.238 42.328 228.238 43.352C228.238 44.504 228.003 45.464 227.534 46.232C227.107 47 226.105 47.5547 224.526 47.896C222.99 48.2373 220.622 48.344 217.422 48.216C216.91 48.216 216.355 48.216 215.758 48.216C215.203 48.1733 214.691 48.088 214.222 47.96C213.027 47.704 212.174 47.1707 211.662 46.36C211.15 45.5067 210.894 44.5467 210.894 43.48C210.894 42.4133 211.214 41.5387 211.854 40.856C212.537 40.1733 213.411 39.768 214.478 39.64ZM156.942 79.96C159.075 79.96 161.294 80.0027 163.598 80.088C165.902 80.1307 168.27 80.216 170.702 80.344C172.622 80.4293 174.137 80.856 175.246 81.624C176.398 82.392 176.974 83.5867 176.974 85.208C176.974 87.0427 176.377 88.3227 175.182 89.048C174.03 89.7733 172.323 90.072 170.062 89.944C167.459 89.816 164.899 89.6667 162.382 89.496C159.865 89.2827 157.667 89.0907 155.79 88.92C153.443 88.664 151.971 88.1307 151.374 87.32C150.777 86.5093 150.478 85.5067 150.478 84.312C150.478 82.904 150.905 81.8373 151.758 81.112C152.611 80.344 154.339 79.96 156.942 79.96ZM170.318 88.92C169.422 88.92 168.633 88.5787 167.95 87.896C167.31 87.1707 166.99 86.232 166.99 85.08C166.99 83.928 167.353 83.032 168.078 82.392C168.803 81.7093 169.891 81.368 171.342 81.368C172.11 81.368 172.835 81.688 173.518 82.328C174.201 82.9253 174.542 83.8 174.542 84.952C174.542 86.1467 174.179 87.1067 173.454 87.832C172.771 88.5573 171.726 88.92 170.318 88.92ZM177.614 54.488C179.406 54.488 180.771 53.8907 181.71 52.696C182.649 51.5013 183.118 49.9227 183.118 47.96C183.118 46.552 182.563 45.2933 181.454 44.184C180.387 43.032 178.851 42.456 176.846 42.456C175.139 42.456 173.753 43.0533 172.686 44.248C171.619 45.4 171.086 47.064 171.086 49.24C171.086 50.8187 171.619 52.0987 172.686 53.08C173.795 54.0187 175.438 54.488 177.614 54.488ZM236.393 93.272C236.393 86.6587 236.436 80.3867 236.521 74.456C236.649 68.5253 236.777 62.3387 236.905 55.896C240.958 55.896 244.009 55.7467 246.057 55.448C248.105 55.1493 249.47 54.6587 250.153 53.976C250.836 53.2933 251.156 52.3973 251.113 51.288C251.07 50.264 250.729 49.4533 250.089 48.856C249.492 48.2587 248.19 47.8747 246.185 47.704C244.222 47.4907 241.214 47.4907 237.161 47.704C237.161 46.68 237.161 45.4213 237.161 43.928C237.204 42.392 237.246 41.0907 237.289 40.024C241.982 39.8107 244.969 39.3627 246.249 38.68C247.529 37.9547 248.169 36.8667 248.169 35.416C248.169 33.88 247.508 32.7493 246.185 32.024C244.862 31.2987 241.897 30.9787 237.289 31.064C237.289 30.3387 237.31 29.4853 237.353 28.504C237.438 27.5227 237.502 26.3707 237.545 25.048C237.673 21.464 238.74 19.0107 240.745 17.688C242.75 16.3227 245.438 15.4907 248.809 15.192C251.369 14.9787 253.929 14.7653 256.489 14.552C259.049 14.3387 261.588 14.168 264.105 14.04C266.622 13.8693 269.076 13.7413 271.465 13.656C273.897 13.5707 276.244 13.528 278.505 13.528C281.918 13.528 284.35 14.0187 285.801 15C287.252 15.9813 287.977 17.5387 287.977 19.672C287.977 21.0373 287.764 22.168 287.337 23.064C286.91 23.9173 286.249 24.5573 285.353 24.984C284.5 25.368 283.412 25.56 282.089 25.56C281.961 25.56 281.79 25.56 281.577 25.56C281.406 25.56 281.214 25.56 281.001 25.56C280.788 25.56 280.574 25.56 280.361 25.56C279.806 25.5173 279.252 25.496 278.697 25.496C278.185 25.496 277.737 25.4747 277.353 25.432C276.073 25.3467 274.708 25.2827 273.257 25.24C271.849 25.1973 270.462 25.1547 269.097 25.112C268.798 25.112 268.5 25.112 268.201 25.112C267.902 25.0693 267.582 25.048 267.241 25.048C266.942 25.048 266.644 25.048 266.345 25.048C266.046 25.0053 265.748 24.984 265.449 24.984C265.193 24.984 264.937 24.984 264.681 24.984C264.126 24.9413 263.593 24.92 263.081 24.92C262.612 24.92 262.164 24.92 261.737 24.92C260.201 24.92 259.177 25.2613 258.665 25.944C258.153 26.6267 257.982 28.1627 258.153 30.552C258.409 34.0507 258.729 37.2293 259.113 40.088C259.497 42.9467 259.945 46.0827 260.457 49.496C260.713 51.16 261.097 52.2907 261.609 52.888C262.164 53.4853 263.102 53.72 264.425 53.592C266.302 53.3787 268.222 53.144 270.185 52.888C272.19 52.5893 273.897 52.3547 275.305 52.184C276.969 51.9707 278.206 52.4187 279.017 53.528C279.87 54.6373 280.297 55.9387 280.297 57.432C280.297 58.84 279.892 60.184 279.081 61.464C278.27 62.7013 277.054 63.3627 275.433 63.448C274.494 63.4907 273.513 63.5333 272.489 63.576C271.465 63.6187 270.398 63.6613 269.289 63.704C268.82 63.7467 268.35 63.768 267.881 63.768C267.454 63.768 267.006 63.7893 266.537 63.832C266.11 63.832 265.662 63.8533 265.193 63.896C264.766 63.896 264.34 63.896 263.913 63.896C263.102 63.9387 262.292 63.9813 261.481 64.024C260.713 64.024 259.924 64.0453 259.113 64.088C258.857 64.088 258.58 64.088 258.281 64.088C258.025 64.088 257.748 64.1093 257.449 64.152C257.193 64.152 256.916 64.152 256.617 64.152C256.361 64.152 256.105 64.1733 255.849 64.216C255.593 64.216 255.316 64.216 255.017 64.216C254.761 64.216 254.505 64.2373 254.249 64.28C253.566 64.3227 252.884 64.3653 252.201 64.408C251.561 64.4507 250.942 64.472 250.345 64.472C249.406 64.5147 248.638 64.8773 248.041 65.56C247.486 66.2427 247.358 67.4587 247.657 69.208C248.254 72.3227 248.937 75.416 249.705 78.488C250.473 81.5173 251.326 84.6107 252.265 87.768C252.777 89.4747 253.396 90.584 254.121 91.096C254.846 91.5653 255.849 91.736 257.129 91.608C261.438 91.1387 265.726 90.6267 269.993 90.072C274.302 89.5173 278.718 89.048 283.241 88.664C285.204 88.4933 286.654 89.0907 287.593 90.456C288.574 91.8213 289.065 93.3147 289.065 94.936C289.065 96.3867 288.66 97.7307 287.849 98.968C287.081 100.205 285.886 100.867 284.265 100.952C277.694 101.208 271.081 101.315 264.425 101.272C257.812 101.229 251.198 101.208 244.585 101.208C241.641 101.208 239.529 100.504 238.249 99.096C237.012 97.688 236.393 95.7467 236.393 93.272ZM253.801 96.984L262.121 97.112C262.292 101.933 262.27 105.517 262.057 107.864C261.886 110.253 261.46 111.832 260.777 112.6C260.137 113.368 259.22 113.752 258.025 113.752C256.788 113.752 255.849 113.347 255.209 112.536C254.612 111.768 254.206 110.189 253.993 107.8C253.822 105.411 253.758 101.805 253.801 96.984ZM273.385 111.832C273.214 109.528 273.065 107.181 272.937 104.792C272.809 102.445 272.702 100.099 272.617 97.752C272.574 95.064 272.852 93.2293 273.449 92.248C274.089 91.224 275.177 90.712 276.713 90.712C278.078 90.712 279.081 91.1813 279.721 92.12C280.404 93.016 280.809 94.552 280.937 96.728C281.065 99.16 281.172 101.571 281.257 103.96C281.342 106.349 281.406 108.76 281.449 111.192C281.534 113.368 281.214 114.947 280.489 115.928C279.806 116.952 278.846 117.464 277.609 117.464C276.329 117.464 275.348 117.037 274.665 116.184C274.025 115.373 273.598 113.923 273.385 111.832ZM276.201 82.904C273.94 82.904 272.19 82.2853 270.953 81.048C269.758 79.8107 269.161 78.04 269.161 75.736C269.161 73.432 269.737 71.7467 270.889 70.68C272.084 69.6133 273.726 69.08 275.817 69.08C278.078 69.08 279.828 69.656 281.065 70.808C282.345 71.96 282.985 73.4747 282.985 75.352C282.985 77.912 282.345 79.8107 281.065 81.048C279.828 82.2853 278.206 82.904 276.201 82.904ZM267.881 18.136C267.881 17.2827 268.286 16.536 269.097 15.896C269.908 15.256 270.825 14.936 271.849 14.936C272.958 14.936 273.982 15.064 274.921 15.32C275.902 15.5333 276.414 16.1307 276.457 17.112C276.542 17.5387 276.606 17.9867 276.649 18.456C276.692 18.8827 276.713 19.288 276.713 19.672C276.713 20.6107 276.329 21.4213 275.561 22.104C274.793 22.7867 273.854 23.128 272.745 23.128C271.721 23.128 270.718 22.9573 269.737 22.616C268.798 22.232 268.265 21.5067 268.137 20.44C268.094 20.056 268.03 19.672 267.945 19.288C267.902 18.904 267.881 18.52 267.881 18.136ZM250.473 22.36L249.321 30.552C247.785 30.3387 246.59 29.9547 245.737 29.4C244.884 28.8027 244.457 27.7787 244.457 26.328C244.457 24.536 244.99 23.4267 246.057 23C247.166 22.5733 248.638 22.36 250.473 22.36ZM312.147 106.072C308.008 106.072 305.128 105.261 303.507 103.64C301.886 102.019 301.075 99.3947 301.075 95.768C301.075 94.3173 301.203 91.864 301.459 88.408C301.758 84.952 302.142 80.856 302.611 76.12C303.08 71.3413 303.592 66.2853 304.147 60.952C304.702 55.576 305.278 50.2427 305.875 44.952C306.472 39.6613 307.027 34.7333 307.539 30.168C308.094 25.6027 308.563 21.7627 308.947 18.648C309.203 16.472 309.694 14.8507 310.419 13.784C311.187 12.6747 312.275 12.12 313.683 12.12C314.75 12.12 315.603 12.3973 316.243 12.952C316.883 13.464 317.352 14.2747 317.651 15.384C317.95 16.4507 318.12 17.7947 318.163 19.416C318.248 21.848 318.334 24.7067 318.419 27.992C318.504 31.2773 318.59 34.6907 318.675 38.232C318.675 38.872 318.675 39.512 318.675 40.152C318.675 40.7493 318.696 41.368 318.739 42.008C318.739 42.6907 318.739 43.3947 318.739 44.12C318.739 44.8027 318.76 45.5067 318.803 46.232C318.846 47.1707 318.867 48.088 318.867 48.984C318.867 49.88 318.888 50.776 318.931 51.672C318.931 52.0987 318.931 52.5253 318.931 52.952C318.974 53.3787 318.995 53.8053 318.995 54.232C318.995 54.616 318.995 55.0213 318.995 55.448C319.038 55.9173 319.059 56.3867 319.059 56.856C319.059 57.2827 319.059 57.7307 319.059 58.2C319.102 58.6267 319.123 59.0533 319.123 59.48C319.208 61.0587 319.272 62.5307 319.315 63.896C319.358 65.2613 319.4 66.4773 319.443 67.544C319.571 70.232 320.083 72.28 320.979 73.688C321.875 75.096 323.283 76.248 325.203 77.144C326.739 77.8693 328.318 78.616 329.939 79.384C331.56 80.1093 333.203 80.856 334.867 81.624C336.531 82.392 338.195 83.16 339.859 83.928C341.566 84.696 343.251 85.464 344.915 86.232C347.048 87.2133 348.798 88.216 350.163 89.24C351.528 90.264 352.531 91.3947 353.171 92.632C353.811 93.8693 354.131 95.2773 354.131 96.856C354.131 99.032 353.406 100.824 351.955 102.232C350.504 103.64 348.328 104.451 345.427 104.664C344.36 104.707 343.294 104.771 342.227 104.856C341.203 104.984 340.179 105.091 339.155 105.176C339.539 101.635 339.667 98.904 339.539 96.984C339.411 95.0213 339.048 93.656 338.451 92.888C337.854 92.12 337.064 91.736 336.083 91.736C334.974 91.736 334.12 92.1413 333.523 92.952C332.968 93.7627 332.584 95.1707 332.371 97.176C332.2 99.1813 332.115 101.976 332.115 105.56C330.792 105.603 329.427 105.645 328.019 105.688C326.654 105.773 325.288 105.816 323.923 105.816C323.923 100.611 323.731 96.728 323.347 94.168C323.006 91.5653 322.494 89.8587 321.811 89.048C321.128 88.2373 320.296 87.8107 319.315 87.768C318.163 87.768 317.246 88.2373 316.563 89.176C315.88 90.1147 315.454 91.9067 315.283 94.552C315.155 97.1547 315.347 100.952 315.859 105.944C315.219 105.987 314.6 106.008 314.003 106.008C313.406 106.051 312.787 106.072 312.147 106.072ZM307.923 71.512C303.528 71.5973 300.136 71.576 297.747 71.448C295.358 71.2773 293.694 70.8507 292.755 70.168C291.859 69.4427 291.411 68.312 291.411 66.776C291.411 64.472 292.606 63.0427 294.995 62.488C297.384 61.8907 301.907 61.8267 308.563 62.296L307.923 71.512ZM314.195 37.464V27.736C319.784 27.7787 324.03 27.9067 326.931 28.12C329.832 28.3333 331.795 28.7813 332.819 29.464C333.886 30.1467 334.419 31.192 334.419 32.6C334.419 34.1787 333.864 35.3307 332.755 36.056C331.688 36.7387 329.683 37.1653 326.739 37.336C323.838 37.5067 319.656 37.5493 314.195 37.464ZM315.347 47.064L315.219 38.872C315.859 38.872 316.392 39 316.819 39.256C317.288 39.512 317.63 39.96 317.843 40.6C318.056 41.1973 318.163 42.0293 318.163 43.096C318.163 44.632 317.928 45.6773 317.459 46.232C317.032 46.7867 316.328 47.064 315.347 47.064ZM348.371 97.368L340.819 96.088C340.819 94.8933 340.947 93.912 341.203 93.144C341.459 92.3333 341.843 91.736 342.355 91.352C342.91 90.968 343.592 90.7547 344.403 90.712C345.896 90.584 346.899 90.776 347.411 91.288C347.966 91.7573 348.264 92.504 348.307 93.528C348.35 94.552 348.371 95.832 348.371 97.368ZM364.615 93.272C364.487 87.8533 364.338 81.7093 364.167 74.84C364.039 67.9707 363.911 61.1013 363.783 54.232C363.783 53.72 363.783 53.2293 363.783 52.76C363.783 52.2907 363.762 51.8213 363.719 51.352C363.719 50.84 363.719 50.3493 363.719 49.88C363.719 49.3253 363.719 48.7707 363.719 48.216C363.719 47.6187 363.719 47.0427 363.719 46.488C363.719 45.9333 363.698 45.3787 363.655 44.824C363.612 43.4587 363.57 42.1147 363.527 40.792C363.527 39.4693 363.527 38.168 363.527 36.888C363.527 36.2907 363.527 35.6933 363.527 35.096C363.527 34.4987 363.527 33.9013 363.527 33.304C363.484 32.664 363.463 32.024 363.463 31.384C363.463 30.744 363.463 30.104 363.463 29.464C363.463 28.3547 363.463 27.288 363.463 26.264C363.463 25.1973 363.463 24.1947 363.463 23.256C363.463 19.8 364.444 17.2613 366.407 15.64C368.412 14.0187 371.271 13.0587 374.983 12.76C376.732 12.5893 378.994 12.4187 381.767 12.248C384.583 12.0347 387.527 11.8427 390.599 11.672C393.671 11.5013 396.53 11.3733 399.175 11.288C401.82 11.16 403.868 11.096 405.319 11.096C408.476 11.096 410.759 11.8 412.167 13.208C413.575 14.5733 414.279 16.3013 414.279 18.392C414.279 20.0987 413.959 21.528 413.319 22.68C412.679 23.832 411.42 24.9627 409.543 26.072C407.708 27.1813 404.978 28.5467 401.351 30.168C400.839 28.3333 400.306 26.904 399.751 25.88C399.239 24.856 398.684 24.1307 398.087 23.704C397.49 23.2347 396.871 23 396.231 23C393.671 23 392.455 24.024 392.583 26.072C392.754 28.0773 393.33 30.4667 394.311 33.24C393.5 33.6667 392.519 34.1573 391.367 34.712C390.258 35.224 389.148 35.672 388.039 36.056C386.716 31.6613 385.5 28.632 384.391 26.968C383.324 25.304 382.194 24.472 380.999 24.472C379.122 24.472 378.012 25.1973 377.671 26.648C377.372 28.056 377.5 29.912 378.055 32.216C378.61 34.4773 379.292 36.9093 380.103 39.512C379.463 39.768 378.802 40.024 378.119 40.28C377.479 40.536 376.86 40.792 376.263 41.048C375.111 41.56 374.279 42.2853 373.767 43.224C373.255 44.1627 373.148 45.3147 373.447 46.68C373.831 48.2587 374.236 49.816 374.663 51.352C375.132 52.8453 375.623 54.4027 376.135 56.024C376.519 57.048 377.18 57.752 378.119 58.136C379.058 58.52 380.188 58.6267 381.511 58.456C382.535 58.2427 383.602 58.0507 384.711 57.88C385.863 57.6667 387.058 57.4747 388.295 57.304C390.044 57.0907 391.367 57.5813 392.263 58.776C393.159 59.928 393.607 61.208 393.607 62.616C393.607 63.6827 393.33 64.6427 392.775 65.496C392.263 66.3493 391.452 66.9467 390.343 67.288C390.172 67.3307 389.916 67.3947 389.575 67.48C389.276 67.5653 388.935 67.6507 388.551 67.736C388.252 67.7787 387.954 67.8427 387.655 67.928C387.356 67.9707 387.058 68.0347 386.759 68.12C386.503 68.1627 386.29 68.2053 386.119 68.248C385.948 68.2907 385.714 68.3547 385.415 68.44C384.988 68.5253 384.604 68.6107 384.263 68.696C383.922 68.7387 383.602 68.8027 383.303 68.888C383.132 68.9307 382.962 68.9733 382.791 69.016C382.663 69.016 382.556 69.016 382.471 69.016C382.386 69.016 382.258 69.0587 382.087 69.144C381.916 69.1867 381.767 69.2293 381.639 69.272C381.511 69.272 381.362 69.2933 381.191 69.336C381.063 69.3787 380.914 69.4213 380.743 69.464C380.444 69.5067 380.167 69.5707 379.911 69.656C379.655 69.6987 379.378 69.7627 379.079 69.848C377.372 70.2747 376.199 70.8507 375.559 71.576C374.919 72.3013 374.727 73.56 374.983 75.352C375.367 77.528 375.836 79.704 376.391 81.88C376.946 84.0133 377.5 86.104 378.055 88.152C378.311 89.048 378.759 89.6667 379.399 90.008C380.082 90.3067 381.298 90.328 383.047 90.072C386.972 89.56 391.004 89.0907 395.143 88.664C399.282 88.1947 403.271 87.768 407.111 87.384C409.159 87.1707 410.674 87.704 411.655 88.984C412.679 90.2213 413.191 91.608 413.191 93.144C413.191 94.5947 412.764 95.96 411.911 97.24C411.1 98.4773 409.884 99.16 408.263 99.288C402.204 99.7147 396.231 100.099 390.343 100.44C384.498 100.739 378.652 100.995 372.807 101.208C369.863 101.336 367.772 100.675 366.535 99.224C365.34 97.7307 364.7 95.7467 364.615 93.272ZM379.463 96.856L388.039 95.96C388.466 102.445 388.615 107.267 388.487 110.424C388.402 113.624 388.018 115.715 387.335 116.696C386.695 117.72 385.735 118.232 384.455 118.232C383.132 118.232 382.172 117.741 381.575 116.76C380.978 115.779 380.551 113.752 380.295 110.68C380.082 107.651 379.804 103.043 379.463 96.856ZM396.487 102.872C396.188 99.544 395.911 96.1733 395.655 92.76C395.399 89.3467 395.164 85.6347 394.951 81.624C394.823 79.576 395.079 77.9973 395.719 76.888C396.402 75.7787 397.468 75.224 398.919 75.224C400.54 75.224 401.65 75.8853 402.247 77.208C402.844 78.488 403.271 80.5147 403.527 83.288C403.868 86.4027 404.124 89.5387 404.295 92.696C404.508 95.8533 404.679 99.032 404.807 102.232C404.935 105.048 404.658 107.096 403.975 108.376C403.335 109.656 402.375 110.296 401.095 110.296C399.772 110.296 398.748 109.741 398.023 108.632C397.34 107.523 396.828 105.603 396.487 102.872ZM404.039 65.24C401.863 65.24 400.263 64.7493 399.239 63.768C398.258 62.7867 397.767 61.272 397.767 59.224C397.767 57.56 398.279 56.1733 399.303 55.064C400.37 53.912 401.863 53.336 403.783 53.336C405.703 53.336 407.154 53.8693 408.135 54.936C409.159 56.0027 409.671 57.2187 409.671 58.584C409.671 61.016 409.138 62.744 408.071 63.768C407.004 64.7493 405.66 65.24 404.039 65.24ZM382.535 15.96C382.535 15.32 382.77 14.808 383.239 14.424C383.751 14.04 384.412 13.8267 385.223 13.784C386.204 13.6987 386.951 13.784 387.463 14.04C387.975 14.2533 388.274 14.68 388.359 15.32C388.316 15.576 388.295 15.8747 388.295 16.216C388.295 16.5573 388.295 16.856 388.295 17.112C388.295 17.7947 388.103 18.328 387.719 18.712C387.335 19.0533 386.631 19.288 385.607 19.416C384.711 19.544 384.028 19.4587 383.559 19.16C383.09 18.8187 382.791 18.264 382.663 17.496C382.62 17.24 382.578 16.984 382.535 16.728C382.535 16.472 382.535 16.216 382.535 15.96ZM370.375 25.048L369.735 30.168C368.54 29.9547 367.687 29.6347 367.175 29.208C366.706 28.7387 366.535 28.0347 366.663 27.096C366.791 26.1147 367.175 25.4747 367.815 25.176C368.498 24.8773 369.351 24.8347 370.375 25.048Z" fill="black"/>
</svg>
