<svg width="227" height="81" viewBox="0 0 227 81" fill="none" xmlns="http://www.w3.org/2000/svg">
<path d="M48.608 79.536C48.096 79.9627 47.6267 80.048 47.2 79.792C46.7733 79.6213 46.944 79.152 47.712 78.384C48.992 77.104 50.1867 75.056 51.296 72.24C52.4053 69.3387 53.6 65.84 54.88 61.744C56.16 57.648 57.696 53.168 59.488 48.304C61.28 43.3547 63.456 38.2347 66.016 32.944C68.6613 27.6533 71.8187 22.4053 75.488 17.2C75.744 16.8587 76.0427 16.6027 76.384 16.432C76.7253 16.176 76.8533 16.2187 76.768 16.56C76.768 16.6453 75.9147 17.84 74.208 20.144C72.5867 22.448 70.3253 25.4773 67.424 29.232C64.5227 32.9013 61.1947 36.9547 57.44 41.392C53.7707 45.8293 49.8453 50.2667 45.664 54.704C41.568 59.1413 37.4293 63.2373 33.248 66.992C29.0667 70.6613 25.056 73.6053 21.216 75.824C17.376 78.0427 13.9627 79.152 10.976 79.152C7.05067 79.152 4.36267 78.4267 2.912 76.976C1.46133 75.44 0.735999 73.904 0.735999 72.368C0.735999 71.1733 1.248 70.2347 2.272 69.552C3.21067 68.784 4.10667 68.4 4.96 68.4C6.83733 68.4 7.776 69.1253 7.776 70.576C7.776 71.344 7.52 71.984 7.008 72.496C6.41067 72.9227 5.68533 73.136 4.832 73.136C4.23467 73.136 3.72267 73.0507 3.296 72.88C2.86933 72.624 2.656 72.496 2.656 72.496C2.656 73.6053 3.21067 74.8 4.32 76.08C5.344 77.36 7.30667 78 10.208 78C13.1093 78 16.4373 76.8907 20.192 74.672C23.9467 72.4533 27.872 69.5093 31.968 65.84C36.1493 62.0853 40.3307 57.9893 44.512 53.552C48.6933 49.1147 52.6613 44.6347 56.416 40.112C60.256 35.504 63.6693 31.2373 66.656 27.312C69.728 23.3013 72.2453 19.9733 74.208 17.328C76.1707 14.6827 77.3227 13.0613 77.664 12.464C78.176 11.7813 78.6453 11.2267 79.072 10.8C79.584 10.3733 79.9253 10.2453 80.096 10.416C80.2667 10.5867 80.0533 11.2693 79.456 12.464C78.688 13.9147 77.7067 16.432 76.512 20.016C75.3173 23.5147 73.9093 27.6533 72.288 32.432C70.6667 37.2107 68.7893 42.2027 66.656 47.408C64.5227 52.6133 62.0907 57.648 59.36 62.512C56.7147 67.376 53.728 71.6853 50.4 75.44C49.888 75.952 49.6747 76.08 49.76 75.824C49.9307 75.4827 50.2293 75.0133 50.656 74.416C51.0827 73.8187 51.424 73.392 51.68 73.136C54.3253 70.6613 57.44 67.2907 61.024 63.024C64.608 58.7573 68.5333 54.1067 72.8 49.072C77.0667 43.952 81.5467 38.832 86.24 33.712C91.0187 28.592 95.8827 23.8987 100.832 19.632C105.867 15.3653 110.859 11.952 115.808 9.392C120.843 6.74666 125.749 5.424 130.528 5.424C133.941 5.424 136.416 6.40533 137.952 8.368C139.573 10.2453 140.384 12.4213 140.384 14.896C140.384 17.2 139.616 19.504 138.08 21.808C136.629 24.0267 134.795 26.0747 132.576 27.952C130.357 29.8293 128.181 31.408 126.048 32.688C124 33.8827 122.379 34.5653 121.184 34.736C120.416 34.8213 119.861 34.864 119.52 34.864C119.264 34.7787 119.563 34.48 120.416 33.968C120.416 33.968 121.227 33.584 122.848 32.816C124.555 31.9627 126.517 30.768 128.736 29.232C130.955 27.6107 132.917 25.6053 134.624 23.216C136.331 20.7413 137.184 17.8827 137.184 14.64C137.184 13.616 136.971 12.5067 136.544 11.312C136.203 10.032 135.52 8.96533 134.496 8.112C133.472 7.17333 131.979 6.70399 130.016 6.70399C125.579 6.70399 120.928 8.02666 116.064 10.672C111.285 13.3173 106.421 16.816 101.472 21.168C96.5227 25.52 91.616 30.384 86.752 35.76C81.888 41.0507 77.152 46.4693 72.544 52.016C68.0213 57.4773 63.712 62.5973 59.616 67.376C55.6053 72.1547 51.936 76.208 48.608 79.536ZM26.08 38.96C20.8747 38.96 17.0773 37.5947 14.688 34.864C12.384 32.1333 11.232 28.9333 11.232 25.264C11.232 22.704 12 20.1867 13.536 17.712C15.1573 15.152 17.6747 13.0613 21.088 11.44C24.5013 9.73333 28.9387 8.88 34.4 8.88C37.8133 8.88 40.8853 9.34933 43.616 10.288C46.3467 11.1413 48.7787 12.1227 50.912 13.232C53.1307 14.3413 55.2213 15.3653 57.184 16.304C59.1467 17.1573 61.0667 17.584 62.944 17.584C64.8213 17.584 66.6133 17.1573 68.32 16.304C70.0267 15.3653 71.0507 14.7253 71.392 14.384C71.8187 14.0427 72.0747 13.9573 72.16 14.128C72.2453 14.2987 72.2027 14.5973 72.032 15.024C71.9467 15.28 71.4773 15.8347 70.624 16.688C69.7707 17.5413 68.448 18.352 66.656 19.12C64.864 19.8027 62.4747 20.144 59.488 20.144C56.8427 20.144 54.3253 19.6747 51.936 18.736C49.632 17.7973 47.328 16.7307 45.024 15.536C42.8053 14.3413 40.4587 13.2747 37.984 12.336C35.5947 11.3973 32.992 10.928 30.176 10.928C26.5067 10.928 23.3493 11.696 20.704 13.232C18.144 14.768 16.1813 16.6453 14.816 18.864C13.4507 21.0827 12.768 23.216 12.768 25.264C12.768 28.4213 13.792 31.3227 15.84 33.968C17.9733 36.528 21.3867 37.808 26.08 37.808C28.5547 37.808 30.816 37.2533 32.864 36.144C34.9973 34.9493 36.6613 33.4133 37.856 31.536C39.136 29.6587 39.776 27.696 39.776 25.648C39.776 25.136 39.5627 24.496 39.136 23.728C38.7947 22.96 38.5387 22.576 38.368 22.576C38.368 22.576 38.1973 22.7467 37.856 23.088C37.5147 23.344 37.0453 23.472 36.448 23.472C35.936 23.472 35.3813 23.3013 34.784 22.96C34.272 22.6187 34.016 22.064 34.016 21.296C34.016 20.6133 34.2293 20.1013 34.656 19.76C35.168 19.3333 35.7227 19.12 36.32 19.12C37.5147 19.12 38.624 19.632 39.648 20.656C40.672 21.68 41.184 23.2587 41.184 25.392C41.184 29.3173 39.6907 32.56 36.704 35.12C33.7173 37.68 30.176 38.96 26.08 38.96ZM86.19 79.152C84.9953 79.152 83.6727 78.8107 82.222 78.128C80.686 77.5307 79.918 76.5067 79.918 75.056C79.918 73.264 80.7287 71.0027 82.35 68.272C83.9713 65.5413 85.9767 62.7253 88.366 59.824C90.67 56.9227 92.9313 54.192 95.15 51.632C97.3687 49.072 99.0327 47.0667 100.142 45.616C101.081 45.7013 102.19 45.744 103.47 45.744C104.835 45.744 106.03 45.7013 107.054 45.616C105.859 47.0667 104.281 48.9013 102.318 51.12C100.441 53.3387 98.4353 55.728 96.302 58.288C94.254 60.7627 92.2487 63.1947 90.286 65.584C88.4087 67.9733 86.8727 70.1067 85.678 71.984C84.4833 73.8613 83.886 75.2267 83.886 76.08C83.886 76.6773 84.142 77.104 84.654 77.36C85.166 77.616 86.0193 77.744 87.214 77.744C89.262 77.744 91.5233 76.976 93.998 75.44C96.558 73.8187 99.0327 71.8987 101.422 69.68C103.811 67.4613 105.945 65.3707 107.822 63.408C109.699 61.36 111.022 59.8667 111.79 58.928L112.814 59.824C112.046 60.6773 110.723 62.1707 108.846 64.304C107.054 66.352 104.878 68.528 102.318 70.832C99.8433 73.136 97.198 75.0987 94.382 76.72C91.6513 78.3413 88.9207 79.152 86.19 79.152ZM111.79 35.888C110.766 35.888 109.998 35.5893 109.486 34.992C108.974 34.3093 108.718 33.5413 108.718 32.688C108.718 31.7493 109.23 30.768 110.254 29.744C111.278 28.72 112.345 28.208 113.454 28.208C114.649 28.208 115.502 28.5493 116.014 29.232C116.526 29.8293 116.782 30.4267 116.782 31.024C116.782 32.304 116.27 33.456 115.246 34.48C114.222 35.4187 113.07 35.888 111.79 35.888ZM152.841 0.431999C153.865 0.602664 154.932 0.730662 156.041 0.815994C157.236 0.815994 158.43 0.687996 159.625 0.431999C159.54 0.517331 158.814 1.54133 157.449 3.504C156.084 5.38133 154.206 7.94133 151.817 11.184C149.513 14.3413 146.91 17.9253 144.009 21.936C141.193 25.9467 138.249 30.0853 135.177 34.352C132.19 38.5333 129.246 42.6293 126.345 46.64C123.529 50.5653 120.926 54.1493 118.537 57.392C116.233 60.6347 114.398 63.2373 113.033 65.2C111.668 67.1627 110.942 68.1867 110.857 68.272C110.857 68.272 110.9 68.3573 110.985 68.528C111.07 68.6133 111.113 68.6987 111.113 68.784C113.246 66.48 115.55 63.9627 118.025 61.232C120.5 58.5013 123.017 55.9413 125.577 53.552C128.137 51.0773 130.654 49.072 133.129 47.536C135.689 46 138.036 45.232 140.169 45.232C142.9 45.232 144.649 45.872 145.417 47.152C146.27 48.3467 146.697 49.4133 146.697 50.352C146.697 52.144 146.1 54.1067 144.905 56.24C143.71 58.3733 142.217 60.5067 140.425 62.64C138.718 64.7733 136.969 66.7787 135.177 68.656C133.47 70.448 132.02 72.0267 130.825 73.392C129.63 74.7573 129.033 75.7387 129.033 76.336C129.033 77.0187 129.545 77.4453 130.569 77.616C131.678 77.7013 132.574 77.744 133.257 77.744C135.22 77.744 137.353 77.0187 139.657 75.568C141.961 74.1173 144.222 72.3253 146.441 70.192C148.66 68.0587 150.665 65.968 152.457 63.92C154.249 61.872 155.614 60.2507 156.553 59.056L157.577 59.824C156.724 60.848 155.444 62.4267 153.737 64.56C152.03 66.608 149.982 68.784 147.593 71.088C145.289 73.3067 142.772 75.2267 140.041 76.848C137.31 78.384 134.452 79.152 131.465 79.152C130.356 79.152 129.076 78.8533 127.625 78.256C126.174 77.744 125.449 76.592 125.449 74.8C125.449 73.3493 126.004 71.6853 127.113 69.808C128.308 67.8453 129.758 65.84 131.465 63.792C133.172 61.6587 134.878 59.6107 136.585 57.648C138.377 55.6853 139.828 53.8933 140.937 52.272C142.132 50.5653 142.729 49.2 142.729 48.176C142.729 47.0667 141.918 46.512 140.297 46.512C138.249 46.512 135.774 47.4933 132.873 49.456C130.057 51.3333 127.07 53.8507 123.913 57.008C120.756 60.1653 117.598 63.5787 114.441 67.248C111.369 70.9173 108.51 74.544 105.865 78.128C104.756 77.9573 103.518 77.872 102.153 77.872C100.788 77.872 99.5077 78.0427 98.313 78.384C98.313 78.384 99.081 77.3173 100.617 75.184C102.153 72.9653 104.244 70.0213 106.889 66.352C109.449 62.5973 112.35 58.416 115.593 53.808C118.836 49.1147 122.164 44.336 125.577 39.472C128.99 34.5227 132.318 29.744 135.561 25.136C138.804 20.4427 141.705 16.2613 144.265 12.592C146.91 8.83733 149.001 5.89333 150.537 3.75999C152.073 1.54133 152.841 0.431999 152.841 0.431999ZM153.69 79.152C152.495 79.152 151.173 78.8107 149.722 78.128C148.186 77.5307 147.418 76.5067 147.418 75.056C147.418 73.264 148.229 71.0027 149.85 68.272C151.471 65.5413 153.477 62.7253 155.866 59.824C158.17 56.9227 160.431 54.192 162.65 51.632C164.869 49.072 166.533 47.0667 167.642 45.616C168.581 45.7013 169.69 45.744 170.97 45.744C172.335 45.744 173.53 45.7013 174.554 45.616C173.359 47.0667 171.781 48.9013 169.818 51.12C167.941 53.3387 165.935 55.728 163.802 58.288C161.754 60.7627 159.749 63.1947 157.786 65.584C155.909 67.9733 154.373 70.1067 153.178 71.984C151.983 73.8613 151.386 75.2267 151.386 76.08C151.386 76.6773 151.642 77.104 152.154 77.36C152.666 77.616 153.519 77.744 154.714 77.744C156.762 77.744 159.023 76.976 161.498 75.44C164.058 73.8187 166.533 71.8987 168.922 69.68C171.311 67.4613 173.445 65.3707 175.322 63.408C177.199 61.36 178.522 59.8667 179.29 58.928L180.314 59.824C179.546 60.6773 178.223 62.1707 176.346 64.304C174.554 66.352 172.378 68.528 169.818 70.832C167.343 73.136 164.698 75.0987 161.882 76.72C159.151 78.3413 156.421 79.152 153.69 79.152ZM179.29 35.888C178.266 35.888 177.498 35.5893 176.986 34.992C176.474 34.3093 176.218 33.5413 176.218 32.688C176.218 31.7493 176.73 30.768 177.754 29.744C178.778 28.72 179.845 28.208 180.954 28.208C182.149 28.208 183.002 28.5493 183.514 29.232C184.026 29.8293 184.282 30.4267 184.282 31.024C184.282 32.304 183.77 33.456 182.746 34.48C181.722 35.4187 180.57 35.888 179.29 35.888ZM220.085 0.431999C221.024 0.602664 222.176 0.687996 223.541 0.687996C224.992 0.687996 226.144 0.602664 226.997 0.431999L182.453 62.512C181.088 64.56 179.765 66.48 178.485 68.272C177.205 70.064 176.181 71.6427 175.413 73.008C174.56 74.288 174.133 75.312 174.133 76.08C174.133 76.6773 174.389 77.104 174.901 77.36C175.328 77.616 175.968 77.744 176.821 77.744C178.784 77.744 180.96 77.0613 183.349 75.696C185.738 74.2453 188.085 72.4533 190.389 70.32C192.778 68.1867 194.954 66.096 196.917 64.048C198.965 62 200.586 60.336 201.781 59.056L202.677 59.824C201.568 61.0187 200.032 62.6827 198.069 64.816C196.106 66.9493 193.845 69.1253 191.285 71.344C188.81 73.4773 186.208 75.312 183.477 76.848C180.832 78.384 178.229 79.152 175.669 79.152C174.304 79.152 173.152 78.768 172.213 78C171.189 77.232 170.677 76.1227 170.677 74.672C170.677 73.7333 171.018 72.5387 171.701 71.088C172.384 69.6373 173.237 68.144 174.261 66.608C175.2 64.9867 176.138 63.536 177.077 62.256C177.93 60.8907 178.613 59.8667 179.125 59.184L220.085 0.431999Z" fill="black"/>
</svg>
